<svg width="148" height="157" viewBox="0 0 148 157" fill="none" xmlns="http://www.w3.org/2000/svg">
<g clip-path="url(#clip0_411_2)">
<mask id="mask0_411_2" style="mask-type:luminance" maskUnits="userSpaceOnUse" x="0" y="0" width="148" height="157">
<path d="M148 0H0V157H148V0Z" fill="white"/>
</mask>
<g mask="url(#mask0_411_2)">
<path d="M148 0H0V157H148V0Z" fill="white"/>
<path d="M59.5136 104.079C58.6964 103.39 57.9089 102.661 57.1587 101.893C52.1541 96.7859 49.2658 90.1344 48.3454 83.0957C47.4058 75.9183 48.5776 68.6423 51.1118 61.9325C51.7438 60.2577 52.4284 58.7578 53.2924 57.0892C53.7032 56.2943 54.1413 55.5144 54.5945 54.742C55.0214 54.0166 55.6601 53.0112 55.9723 52.5518C58.0814 49.4394 60.4311 46.6869 62.9843 44.367C65.2758 42.2851 67.7699 40.4911 70.5578 39.1365C73.2764 37.8167 76.2276 36.9328 79.1934 36.3703C80.1446 36.1903 80.9108 35.5241 81.2093 34.584C81.4099 33.9533 81.2275 32.7709 80.2836 32.9517C72.8558 34.3627 66.0861 38.3696 60.4718 43.3308C54.7149 48.4171 50.5481 55.3754 47.8653 62.5118C42.7024 76.2464 43.4326 92.9975 53.4863 104.374C54.3451 105.345 55.2609 106.255 56.2269 107.108C54.1754 109.424 52.6073 112.179 51.71 115.147C49.7194 121.734 50.6303 128.948 52.8234 135.355C53.8443 138.334 55.1816 141.19 56.8405 143.864C53.807 141.645 50.9487 139.158 48.0336 136.802C46.5302 135.587 43.8674 138.907 45.3201 140.189C48.8388 143.291 52.1826 146.562 56.0462 149.248C57.9326 150.559 59.9453 151.673 62.0491 152.599C63.0896 153.057 64.1598 153.439 65.2425 153.78C66.6121 154.211 67.9682 154.67 69.3924 154.388C70.6715 154.135 72.2661 151.722 71.0152 150.65C70.6747 150.358 70.2288 150.169 69.7505 150.025C69.669 149.767 69.5324 149.524 69.3323 149.299C69.3292 149.297 69.3277 149.296 69.3245 149.293C69.3098 149.272 69.2901 149.245 69.2608 149.207C69.1659 149.079 69.0791 148.945 68.9923 148.811C68.5849 148.177 68.2766 147.483 67.9956 146.788C67.3037 145.08 66.9115 143.055 66.605 141.168C66.2887 139.217 66.0876 137.244 66.1033 135.266C66.1179 133.428 66.2354 131.947 66.8244 130.462C67.161 129.613 66.7836 128.485 65.7349 128.54C64.5609 128.602 63.775 129.662 63.3614 130.643C61.7256 134.517 62.1038 139.417 62.6644 143.474C62.6896 143.65 62.7161 143.824 62.7442 144C62.6666 143.905 62.5878 143.812 62.5113 143.713C61.1974 142.026 60.0657 140.201 59.0662 138.315C57.012 134.439 55.6257 130.236 54.966 125.901C54.3511 121.867 54.4951 117.743 55.7677 114.038C56.1151 113.027 56.2362 112.785 56.7746 111.791C56.8871 111.585 57.0072 111.382 57.1273 111.179C57.1449 111.149 57.3531 110.826 57.377 110.785C57.6566 110.383 57.9577 109.997 58.2685 109.622C58.3972 109.469 58.5303 109.317 58.6652 109.169C58.5689 109.278 58.6355 109.211 58.7297 109.112C62.4453 111.809 66.7002 113.776 71.1007 115.062C74.5602 116.072 78.4137 116.699 81.9439 115.682C85.45 114.67 88.6014 111.159 88.1664 107.352C87.7947 104.096 84.0723 102.484 81.3741 101.611C78.0238 100.525 74.2751 100.175 70.7654 100.2C66.6237 100.228 62.7368 101.691 59.517 104.084L59.5136 104.079ZM72.4279 104.67C75.5607 104.89 79.5192 105.51 82.2417 106.987C82.8334 107.307 83.3809 107.701 83.8638 108.169C83.8763 108.18 84.026 108.356 84.0592 108.39C84.1248 108.48 84.1865 108.574 84.2452 108.669C84.3221 108.79 84.3823 108.918 84.444 109.047C84.4587 109.083 84.4683 109.11 84.4773 109.131C84.4929 109.195 84.5098 109.257 84.521 109.32C84.5304 109.362 84.5469 109.555 84.5566 109.6C84.5519 109.698 84.5428 109.794 84.5337 109.89C84.5312 109.912 84.5311 109.928 84.5282 109.944C84.5213 109.965 84.5149 109.992 84.5061 110.024C84.4689 110.163 84.4183 110.299 84.3662 110.434C84.4379 110.241 84.3556 110.412 84.287 110.557C84.2414 110.633 84.1717 110.747 84.1391 110.789C84.1089 110.825 84.0217 110.922 83.9608 110.988C83.8535 111.087 83.7429 111.181 83.6304 111.27C83.8111 111.115 83.3399 111.425 83.0979 111.573C83.0199 111.609 82.8391 111.694 82.8083 111.705C82.6403 111.771 82.4683 111.824 82.2965 111.879C81.5722 112.106 81.0101 112.166 80.1127 112.212C78.3739 112.302 76.6461 112.031 74.9554 111.652C70.5103 110.657 66.2748 108.866 62.5164 106.343C62.519 106.34 62.5247 106.34 62.5289 106.338C65.7131 104.677 68.8003 104.417 72.425 104.67H72.4279Z" fill="#064F8D"/>
</g>
</g>
<defs>
<clipPath id="clip0_411_2">
<rect width="148" height="157" fill="white"/>
</clipPath>
</defs>
</svg>
