<?xml version="1.0" encoding="UTF-8"?><svg id="OBJECTS" xmlns="http://www.w3.org/2000/svg" viewBox="0 0 206.09 198.31"><defs><style>.cls-1{fill:#2c204d;}.cls-2{fill:#92d4f1;}</style></defs><path class="cls-2" d="m202.02,146.37s5.57-74.25-50.67-112.93C95.1-5.24,7.67,22.46.65,89.47c-7.02,67.01,43.98,118.16,95.54,103.81,51.56-14.35,60.66-68.67,60.66-68.67,0,0,25.02.25,45.17,21.75Z"/><path class="cls-1" d="m82.69,188.05c-16.32,0-32.46-6.13-46.03-17.79C12.67,149.63.73,116.27,4.72,81.01c3.17-28.06,20.96-51.36,48.78-63.91,33.2-14.98,73.48-11.48,102.63,8.92,28.91,20.23,40.9,49.98,45.87,71.37,5.38,23.15,3.91,41.79,3.89,41.98-.02.28-.21.52-.47.61-.26.09-.56.02-.75-.19-17.74-19.25-39.81-21.5-43.65-21.74-1.27,6.03-13,54.73-61.26,67.74-5.64,1.52-11.37,2.27-17.06,2.27ZM96.93,9.29c-14.63,0-29.34,2.99-42.85,9.09C26.71,30.73,9.23,53.61,6.12,81.17c-3.93,34.79,7.83,67.7,31.47,88.02,17.95,15.43,40.48,20.98,61.81,15.23,50.37-13.58,60.27-66.7,60.37-67.23.06-.34.35-.6.7-.58.25,0,24.47.68,44.12,21.03.22-4.98.46-20.93-3.96-39.98-4.92-21.14-16.77-50.52-45.3-70.49-16.88-11.82-37.56-17.88-58.39-17.88Z"/><path class="cls-1" d="m111.88,1.57c5.05,1.05,10.05,2.33,14.98,3.84,4.94,1.51,9.73,3.38,14.58,5.13.8.29,1.37-1.03.59-1.39C132.66,4.87,122.38,2.1,112.31.02c-1.01-.21-1.44,1.34-.43,1.55h0Z"/><path class="cls-1" d="m146.99,12.77c2.26,1.04,4.51,2.12,6.82,3.07.33.14.75-.12.87-.43.13-.32.03-.75-.3-.92-2.16-1.1-4.39-2.06-6.6-3.07-.38-.17-.84-.11-1.07.28-.2.34-.1.89.28,1.07h0Z"/><path class="cls-1" d="m18.9,173.63c7.09,7.25,14.36,14.63,23.47,19.34.9.47,1.7-.89.8-1.37-8.95-4.74-16.11-11.95-23.13-19.11-.73-.74-1.87.4-1.14,1.14h0Z"/><path class="cls-1" d="m49.62,196.23c2.75.89,5.56,1.58,8.41,2.06.42.07.86-.11.98-.56.11-.38-.13-.91-.56-.98-2.85-.48-5.66-1.17-8.41-2.06-.98-.32-1.41,1.23-.43,1.55h0Z"/><path class="cls-1" d="m175.32,140.17c4.02,1.52,7.76,3.71,11.11,6.4.34.27.8.33,1.14,0,.29-.28.33-.86,0-1.14-3.52-2.95-7.53-5.23-11.81-6.85-.99-.38-1.42,1.22-.44,1.59h0Z"/><path class="cls-1" d="m190.44,150.02c.82.67,1.65,1.34,2.48,2,.17.13.33.23.55.23.19,0,.42-.09.55-.23.27-.29.33-.83,0-1.11-.81-.68-1.64-1.35-2.46-2.02-.17-.14-.34-.23-.56-.23-.2,0-.43.09-.56.23-.27.29-.35.85,0,1.13h0Z"/><path class="cls-1" d="m114.96,170.32c5.96-2.83,11.95-6.34,16.75-10.9.53-.5-.18-1.47-.79-1.03-2.68,1.94-5.3,3.95-8.09,5.73-2.79,1.78-5.69,3.38-8.68,4.81-.94.45-.12,1.83.81,1.39h0Z"/><path class="cls-1" d="m134.51,156.17c.49-.49.97-.97,1.46-1.46.49-.49.95-1,1.39-1.53.23-.27.29-.7,0-.96-.29-.27-.67-.24-.96,0-.53.44-1.04.9-1.53,1.39-.49.49-.97.97-1.46,1.46-.29.29-.31.81,0,1.09.31.28.79.31,1.09,0h0Z"/></svg>