<svg width="82" height="66" viewBox="0 0 82 66" fill="none" xmlns="http://www.w3.org/2000/svg">
<path d="M77.5436 21.7089C74.6606 18.1927 69.9253 15.5964 65.5836 15.1046C64.1211 11.354 60.9425 8.24809 57.1601 6.91552C53.3038 5.54854 48.3302 5.86704 44.9134 7.62767C42.0176 3.20953 36.895 0.255188 31.6004 0.0169547C29.0397 -0.104073 26.4663 0.427174 24.1196 1.47183C21.5895 2.44769 19.2658 3.96245 17.416 5.94602C13.5928 10.0457 11.8563 15.9989 12.8768 21.5114C9.18355 21.886 5.67375 23.9855 3.3908 26.9131C1.10784 29.8407 -0.0336425 33.59 0.00075476 37.3023C0.0262342 40.1789 0.850495 43.2326 3.04937 45.0863C4.90937 46.6558 7.75797 47.3438 10.1709 47.6686C18.4237 48.7821 26.4956 49.4522 34.7968 49.1095L34.8019 63.9194C34.8019 64.1908 34.8859 64.4545 35.0312 64.5972C35.4669 65.0214 35.8261 65.1641 36.2211 65.4316V65.3679C36.3434 65.424 36.4759 65.4571 36.6122 65.4571L45.7376 65.4546C45.8639 65.4546 45.9889 65.4296 46.1054 65.381C46.2219 65.3324 46.3276 65.2612 46.4164 65.1716C46.5053 65.0819 46.5755 64.9755 46.623 64.8585C46.6705 64.7416 46.6943 64.6164 46.6931 64.4902L46.5351 48.8865C54.4567 49.5235 62.4636 49.0866 70.2667 47.582C72.6019 47.131 75.6378 46.0902 77.4914 44.6009C79.7209 42.8122 80.3706 41.5497 81.1401 38.798C81.5732 37.2463 81.6025 35.32 81.4293 33.4345C81.6051 29.2393 80.2075 24.941 77.5436 21.7089ZM43.7541 9.39212C43.8182 9.50476 43.9047 9.60314 44.0082 9.68121C44.1117 9.75929 44.23 9.81543 44.3559 9.84619C44.4819 9.87696 44.6128 9.88171 44.7406 9.86015C44.8684 9.83859 44.9905 9.79117 45.0994 9.7208C48.0397 7.83532 52.8439 7.41491 56.5244 8.71691C59.9628 9.92846 62.8229 12.8369 63.9873 16.3047C64.1109 16.6741 64.4434 16.9289 64.8294 16.9544C68.8424 17.2207 73.3574 19.617 76.0684 22.923C78.6889 26.1028 79.9489 30.4432 79.4393 34.5314C79.0571 37.5227 77.7933 40.0031 75.8811 41.5153C73.6224 43.2989 70.5253 43.7257 67.2843 44.034C60.2775 44.6888 53.2923 45.1169 46.4995 45.3207L46.4625 41.7103L55.1128 41.909C55.2977 41.9096 55.4789 41.858 55.6358 41.7602C55.7926 41.6624 55.9187 41.5223 55.9995 41.3561C56.078 41.1882 56.1059 41.001 56.0796 40.8175C56.0534 40.6339 55.9742 40.4621 55.8517 40.3229L42.1438 24.7346C42.0554 24.6338 41.9467 24.5529 41.8248 24.4972C41.703 24.4414 41.5707 24.412 41.4367 24.411C41.1678 24.4166 40.9117 24.5272 40.7233 24.7193L26.7949 39.863C26.6692 39.9997 26.586 40.1701 26.5554 40.3534C26.5249 40.5366 26.5483 40.7248 26.623 40.8949C26.6943 41.0554 26.809 41.1879 26.9465 41.2847L28.3212 42.6606H34.7929L34.7955 45.4583C34.0056 45.4519 33.2158 45.4519 32.4208 45.4353L32.0106 45.4303C26.4026 45.3411 20.606 45.2493 15.0056 44.6073C13.1736 44.3945 10.4792 43.9919 8.23699 42.9511C6.81396 42.2976 5.73873 41.4555 5.03932 40.4452C3.40991 38.11 3.60737 33.7951 4.72465 31.1401C6.59229 26.7576 11.5544 23.8912 16.2668 24.4581C16.4331 24.4781 16.6016 24.454 16.7556 24.3883C16.9096 24.3226 17.0436 24.2176 17.1442 24.0838C17.2448 23.95 17.3086 23.7921 17.329 23.626C17.3494 23.4598 17.3258 23.2912 17.2605 23.137C15.2795 18.4615 15.863 12.3579 18.6785 8.29268C21.5143 4.20323 26.5249 1.71134 31.5137 1.92537C36.4899 2.14958 41.294 5.08227 43.7541 9.39212ZM37.5664 63.5461V40.5102C37.5664 40.2568 37.4657 40.0137 37.2865 39.8345C37.1073 39.6554 36.8643 39.5547 36.6109 39.5547H29.6728L41.4087 26.7946L52.9764 39.9484L45.5172 39.7764C45.3886 39.7683 45.2597 39.7888 45.1399 39.8363C45.0201 39.8839 44.9123 39.9574 44.8242 40.0515C44.7332 40.1418 44.6611 40.2495 44.6123 40.3681C44.5635 40.4866 44.539 40.6138 44.5401 40.742L44.5974 46.3309L44.5962 46.3373V46.3437L44.7707 63.5436L37.5664 63.5461ZM64.9402 9.09656C65.1705 9.09633 65.393 9.01293 65.5667 8.86171C65.7404 8.7105 65.8536 8.50164 65.8855 8.27357L66.7505 2.0706C66.7719 1.94457 66.7677 1.81553 66.7383 1.69113C66.7089 1.56674 66.6548 1.44951 66.5793 1.34639C66.5037 1.24327 66.4082 1.15636 66.2985 1.0908C66.1888 1.02525 66.067 0.982373 65.9404 0.964725C65.8138 0.947077 65.6849 0.955013 65.5614 0.988062C65.438 1.02111 65.3224 1.0786 65.2215 1.15713C65.1206 1.23566 65.0366 1.33363 64.9742 1.44523C64.9119 1.55684 64.8726 1.67982 64.8587 1.80689L63.9924 8.00986C63.9736 8.14524 63.9841 8.28308 64.0232 8.41406C64.0622 8.54504 64.1289 8.66613 64.2188 8.76913C64.3086 8.87213 64.4195 8.95466 64.544 9.01115C64.6684 9.06763 64.8036 9.09676 64.9402 9.09656ZM69.8807 10.74L73.5523 5.33069C73.6258 5.22698 73.6779 5.10964 73.7055 4.98554C73.7331 4.86145 73.7357 4.73309 73.7131 4.60798C73.6904 4.48288 73.6431 4.36355 73.5737 4.25699C73.5044 4.15043 73.4145 4.05877 73.3093 3.98739C73.2041 3.91602 73.0857 3.86635 72.9611 3.84131C72.8364 3.81626 72.708 3.81634 72.5834 3.84155C72.4588 3.86675 72.3405 3.91656 72.2354 3.98808C72.1303 4.05959 72.0405 4.15136 71.9713 4.25801L68.2997 9.66602C68.2262 9.76973 68.1741 9.88708 68.1465 10.0112C68.1189 10.1353 68.1163 10.2636 68.1389 10.3887C68.1616 10.5138 68.2089 10.6332 68.2783 10.7397C68.3476 10.8463 68.4375 10.9379 68.5427 11.0093C68.6479 11.0807 68.7663 11.1304 68.8909 11.1554C69.0156 11.1805 69.1439 11.1804 69.2686 11.1552C69.3932 11.13 69.5115 11.0802 69.6166 11.0086C69.7217 10.9371 69.8115 10.8466 69.8807 10.74ZM78.9858 10.554L72.7815 12.6382C72.5413 12.719 72.343 12.8918 72.2302 13.1188C72.1174 13.3458 72.0995 13.6082 72.1802 13.8485C72.261 14.0887 72.4338 14.287 72.6608 14.3998C72.8878 14.5126 73.1503 14.5305 73.3905 14.4498L79.5947 12.3643C79.8273 12.2777 80.0171 12.1041 80.1239 11.8801C80.2307 11.6561 80.2462 11.3994 80.1671 11.1642C80.088 10.929 79.9204 10.7338 79.7 10.6199C79.4795 10.506 79.2234 10.4824 78.9858 10.554Z" fill="#5DC4F1"/>
</svg>
