<svg width="85" height="80" viewBox="0 0 85 80" fill="none" xmlns="http://www.w3.org/2000/svg">
<circle cx="40" cy="40" r="40" fill="#5DC4F1"/>
<path d="M29.1137 29.9068C29.1327 29.2582 29.1703 28.3903 29.2276 27.4304C29.2746 26.6458 29.3345 25.8017 29.4204 24.9678C29.4786 24.3377 29.624 23.7159 29.8545 23.1278C30.1854 22.2836 30.706 21.5126 31.4681 20.914C32.4981 20.1048 33.9562 19.6145 35.9295 19.6427L35.9513 19.6425C35.9513 19.6425 38.279 19.5881 42.4297 19.5749C44.5138 19.5683 47.0572 19.5879 49.9963 19.5967C50.7291 19.5989 51.4862 19.5978 52.267 19.5919C53.9311 19.5791 55.6992 19.5469 57.5682 19.5357C57.6125 19.5368 57.6565 19.5293 57.6979 19.5134C57.7392 19.4975 57.777 19.4737 57.8091 19.4432C57.8412 19.4127 57.867 19.3762 57.885 19.3358C57.903 19.2953 57.9129 19.2517 57.914 19.2075C57.9152 19.1632 57.9076 19.1192 57.8918 19.0779C57.8759 19.0365 57.852 18.9987 57.8216 18.9666C57.7911 18.9345 57.7546 18.9087 57.7142 18.8907C57.6737 18.8727 57.6301 18.8629 57.5859 18.8617C55.7578 18.7546 54.0263 18.6471 52.3926 18.5806C51.238 18.5348 50.0829 18.5018 48.9275 18.4816C40.9245 18.3318 36.1167 18.5032 35.9266 18.5101C33.6445 18.4913 31.966 19.0985 30.7803 20.0462C30.0454 20.6322 29.4585 21.3827 29.0668 22.2371C28.683 23.069 28.4823 23.9792 28.4301 24.8944C28.3986 25.5641 28.3811 26.2344 28.3774 26.9049C28.3726 28.0739 28.4082 29.1445 28.4395 29.9108C28.4401 30.0002 28.4761 30.0857 28.5397 30.1486C28.6033 30.2114 28.6892 30.2464 28.7786 30.2459C28.868 30.2454 28.9535 30.2093 29.0164 30.1457C29.0792 30.0822 29.1142 29.9962 29.1137 29.9068Z" fill="#2C204D"/>
<path d="M57.5756 19.5357C57.5756 19.5357 60.2797 19.6219 62.1423 21.4583C63.102 22.4046 63.8284 23.8274 63.8306 25.9783L63.8679 35.3306C63.8657 35.4104 63.8066 37.0886 62.4633 38.1536C61.781 38.6945 60.7728 39.0653 59.2955 39.0281C59.2078 39.0259 59.1208 39.0439 59.0412 39.0808C58.9616 39.1177 58.8916 39.1725 58.8367 39.2409C58.7817 39.3092 58.7433 39.3894 58.7243 39.475C58.7054 39.5606 58.7065 39.6495 58.7275 39.7347C58.7275 39.7347 59.2754 41.9551 59.5876 44.3016C59.6658 44.8885 59.7297 45.4834 59.7657 46.0525C58.9734 45.3402 57.7144 44.2434 56.0468 42.8996C54.6724 41.7923 53.0094 40.534 51.1201 39.1601C51.0514 39.1076 50.9665 39.0809 50.8802 39.0847L49.5609 39.1136C49.4715 39.1121 49.3852 39.1461 49.3209 39.2082C49.2566 39.2703 49.2195 39.3554 49.2178 39.4447C49.2163 39.5341 49.2504 39.6204 49.3125 39.6847C49.3745 39.749 49.4596 39.7861 49.549 39.7878L50.7616 39.8177C52.5352 41.2437 54.0791 42.5672 55.388 43.6915C58.2906 46.1845 59.965 47.7653 59.965 47.7653C60.0434 47.8402 60.1417 47.8908 60.2482 47.9111C60.3547 47.9314 60.4648 47.9204 60.5652 47.8796C60.6656 47.8388 60.752 47.7698 60.8141 47.6809C60.8762 47.5921 60.9113 47.4872 60.9151 47.3788C60.9514 46.4143 60.8607 45.2697 60.7146 44.1529C60.5057 42.5548 60.1871 41.0141 59.9959 40.1568C61.43 40.0729 62.4472 39.6243 63.173 39.0477C64.973 37.6174 64.9999 35.3432 64.9999 35.3432V35.3308L64.9166 25.9624C64.8461 23.4646 63.9459 21.832 62.7894 20.7762C60.6247 18.8001 57.5783 18.8615 57.5783 18.8615C57.4889 18.8612 57.403 18.8964 57.3395 18.9593C57.276 19.0223 57.2402 19.1079 57.2398 19.1973C57.2395 19.2867 57.2747 19.3726 57.3376 19.4361C57.4006 19.4995 57.4862 19.5354 57.5756 19.5357Z" fill="#2C204D"/>
<path d="M36.8279 23.8485C36.3672 23.8407 36.0533 23.9551 35.8351 24.104C35.3083 24.4645 35.32 25.0653 35.32 25.0653C35.3161 25.4802 35.4709 25.7734 35.682 25.9832C36.1672 26.4655 37.0066 26.465 37.0066 26.465C38.7996 26.4954 40.6792 26.5228 42.5229 26.5245C48.5512 26.5296 54.1922 26.3974 55.3962 26.4161C56.0927 26.426 56.5318 26.2445 56.8127 26.0303C57.321 25.643 57.3578 25.1193 57.3602 25.0669C57.3957 24.594 57.2093 24.3003 56.9724 24.1124C56.5977 23.8147 56.053 23.8174 56.053 23.8174H56.0623C52.4487 23.7769 48.1423 23.7418 44.5212 23.7535C43.107 23.7581 41.7976 23.7746 40.6746 23.7885C38.3684 23.817 36.8497 23.848 36.8279 23.8485ZM36.8273 24.253H36.8277C36.8277 24.253 38.3512 24.2843 40.6733 24.3235C41.7958 24.3424 43.1048 24.3667 44.5186 24.3825C48.1376 24.4233 52.4417 24.4411 56.0533 24.4978C56.0563 24.498 56.0594 24.498 56.0625 24.4978C56.0625 24.4978 56.3513 24.4892 56.5481 24.646C56.6391 24.7183 56.6937 24.8379 56.679 25.0206C56.6786 25.0248 56.6783 25.029 56.6781 25.0331C56.6781 25.0331 56.6466 25.3694 56.2681 25.5679C56.0702 25.6716 55.7924 25.7366 55.4062 25.7309C55.0825 25.7263 54.4405 25.7303 53.5574 25.7404C51.0484 25.7693 46.5848 25.8223 41.9677 25.8721C40.3044 25.89 38.6216 25.9186 37.0026 25.9277H36.9954C36.9954 25.9277 36.5175 25.9495 36.1531 25.7212C35.9552 25.5972 35.7942 25.3936 35.7847 25.0572V25.0532C35.7847 25.0532 35.7686 24.6868 36.0841 24.4552C36.2441 24.338 36.4809 24.2569 36.8273 24.253ZM40.213 29.9404C40.2588 29.7001 40.3718 29.4291 40.642 29.2568C40.8332 29.1349 41.1013 29.071 41.4713 29.0871C42.756 29.1419 44.0416 29.1775 45.3274 29.1938C47.6961 29.2292 50.9223 29.2535 54.3268 29.2733L54.3374 29.2731C54.3374 29.2731 54.8426 29.255 55.205 29.5042C55.3892 29.6311 55.5225 29.8413 55.5031 30.1784C55.5024 30.189 55.5023 30.1995 55.5027 30.2101C55.5027 30.2101 55.5035 30.551 55.1691 30.7843C54.9946 30.9059 54.7414 30.996 54.3792 31.0236C54.2717 31.0255 53.2974 31.0414 51.866 31.0811C50.8014 31.1104 49.4858 31.1624 48.0845 31.1978C48.0325 31.2001 47.9834 31.2224 47.9474 31.26C47.9113 31.2976 47.8912 31.3476 47.8911 31.3997C47.8909 31.4517 47.9109 31.5018 47.9468 31.5396C47.9826 31.5773 48.0317 31.5998 48.0837 31.6024C49.4867 31.6447 50.8047 31.6834 51.871 31.6951C53.3915 31.7116 54.3971 31.6922 54.3971 31.6922L54.4143 31.6914C55.0966 31.6469 55.5055 31.4188 55.7571 31.1725C56.1652 30.7724 56.1835 30.2925 56.183 30.2017C56.2092 29.7166 56.0477 29.3751 55.8168 29.1327C55.2878 28.5777 54.3191 28.5898 54.3191 28.5898L54.3296 28.5896C52.1394 28.5821 50.023 28.5654 48.1612 28.555C46.5652 28.5462 45.1562 28.5332 44.0486 28.5356C42.4489 28.539 41.4781 28.5594 41.4781 28.5594C40.9786 28.5683 40.627 28.6916 40.3793 28.8714C40.009 29.1407 39.8578 29.53 39.8135 29.877C39.808 29.9286 39.8224 29.9805 39.854 30.0218C39.8855 30.063 39.9318 30.0906 39.9831 30.0988C40.0344 30.1069 40.0869 30.095 40.1297 30.0656C40.1725 30.0361 40.2023 29.9913 40.213 29.9404Z" fill="#2C204D"/>
<path d="M15.8051 34.7919C15.8051 34.7919 15.711 32.6812 17.6736 31.4331C18.5457 30.8783 19.8145 30.5005 21.6593 30.5207L21.6679 30.5205C21.6679 30.5205 23.1602 30.5062 25.6344 30.4866C27.9824 30.4678 31.2141 30.4414 34.8936 30.4482C37.643 30.4535 40.6425 30.4718 43.7101 30.5225L43.7317 30.5223C43.7317 30.5223 45.9874 30.4656 47.5561 31.8195C48.3938 32.5426 49.0146 33.6813 48.9895 35.4523L48.9353 42.9455C48.9351 42.9581 48.9355 42.9706 48.9362 42.9834C48.9362 42.9834 49.1241 45.4224 47.3366 47.0944C46.4496 47.9242 45.0907 48.5649 43.0086 48.6658C42.9207 48.6703 42.838 48.709 42.7783 48.7735C42.7185 48.8381 42.6863 48.9235 42.6886 49.0115C42.6909 49.0995 42.7275 49.1831 42.7906 49.2444C42.8536 49.3058 42.9382 49.3401 43.0262 49.34C45.3612 49.331 46.9074 48.6515 47.9366 47.7611C50.0184 45.9602 50.0052 43.2507 49.9968 42.9462L50.1189 35.469C50.1544 33.2636 49.3425 31.8603 48.3003 30.9585C46.4754 29.379 43.8769 29.3799 43.7143 29.3814C40.0384 29.3269 36.3621 29.3078 32.6859 29.3244C29.5778 29.3385 26.8982 29.3713 24.9578 29.4101C22.8762 29.4517 21.6448 29.4971 21.6448 29.4971C19.5676 29.5449 18.1509 30.0395 17.1902 30.7051C14.8929 32.2972 15.1326 34.8406 15.1326 34.8406C15.1393 34.9296 15.181 35.0124 15.2486 35.0707C15.3162 35.129 15.4041 35.1581 15.4931 35.1517C15.5822 35.1452 15.665 35.1038 15.7235 35.0363C15.782 34.9689 15.8113 34.881 15.8051 34.7919Z" fill="#2C204D"/>
<path d="M43.0078 48.6659L30.9183 48.595C30.8044 48.5901 29.5318 48.5622 27.9413 49.5516C27.2365 49.9901 26.4647 50.6334 25.7061 51.5791C25.7059 51.5795 25.7056 51.5799 25.7052 51.5802C25.7052 51.5802 24.5884 52.9801 22.8943 54.3397C22.1937 54.9022 21.3937 55.459 20.5318 55.9034C20.6486 55.2188 20.7986 54.2549 20.9315 53.1451C21.0725 51.9642 21.1941 50.6182 21.2346 49.2676C21.237 49.1901 21.2234 49.1128 21.1948 49.0407C21.1662 48.9686 21.1231 48.9031 21.0682 48.8482C21.0133 48.7934 20.9477 48.7503 20.8755 48.7218C20.8034 48.6933 20.7261 48.6798 20.6486 48.6822C20.6486 48.6822 18.8146 48.7459 17.4823 47.6015C16.7832 47.0009 16.235 46.0606 16.1557 44.6014C16.1484 44.3524 16.0638 41.4375 15.9649 38.7304C15.9081 37.1709 15.8411 35.6824 15.8058 34.8115C15.8017 34.724 15.7637 34.6416 15.6999 34.5817C15.6361 34.5218 15.5515 34.489 15.4639 34.4903C15.3764 34.4916 15.2928 34.5268 15.2308 34.5886C15.1688 34.6504 15.1332 34.7339 15.1316 34.8214C15.1222 35.693 15.0997 37.183 15.0891 38.7434C15.0702 41.5715 15.0739 44.6256 15.0739 44.6256L15.0746 44.6432C15.1532 46.4957 15.8684 47.6824 16.7486 48.4496C17.8696 49.4265 19.2852 49.7076 20.0768 49.7876C20.0239 50.9141 19.9191 52.0213 19.8001 53.0096C19.5408 55.1651 19.2149 56.7565 19.2149 56.7565C19.1944 56.8569 19.2012 56.9611 19.2348 57.058C19.2684 57.1549 19.3274 57.241 19.4058 57.3072C19.4841 57.3734 19.5788 57.4172 19.6799 57.4342C19.7811 57.4512 19.8849 57.4406 19.9805 57.4036C21.3201 56.8836 22.5654 56.0622 23.6055 55.2237C25.3847 53.7894 26.5603 52.3121 26.5857 52.2804C27.2458 51.45 27.9166 50.8817 28.5314 50.4946C29.8476 49.666 30.8794 49.6882 30.8794 49.6882C30.8875 49.6887 30.8957 49.6887 30.9038 49.6887C32.6679 49.6728 34.2986 49.66 35.754 49.6241C40.2119 49.5142 43.0267 49.3399 43.0267 49.3399C43.114 49.3345 43.1958 49.2953 43.2548 49.2307C43.3138 49.1662 43.3454 49.0812 43.3429 48.9938C43.3405 48.9063 43.3041 48.8233 43.2416 48.7621C43.1791 48.7009 43.0953 48.6665 43.0078 48.6659Z" fill="#2C204D"/>
<path d="M22.0208 41.8537C22.6481 41.8127 23.3438 41.5712 23.7977 41.1264C24.1256 40.8052 24.3357 40.3832 24.3287 39.8578L24.3285 39.8725C24.3353 39.1648 24.0766 38.7057 23.7301 38.4177C23.567 38.2831 23.3819 38.1774 23.183 38.1055C22.721 37.937 22.2951 37.9548 22.2951 37.9548L22.2902 37.9546C21.5625 37.9074 21.0719 38.0852 20.7372 38.3302C20.4069 38.5717 20.23 38.8927 20.1326 39.1741C20.0039 39.5456 20.0275 39.8567 20.0284 39.869C20.0698 40.5507 20.2926 40.9935 20.5614 41.2852C21.1236 41.8955 21.9223 41.8605 22.0208 41.8537ZM22.2878 38.3593C22.3273 38.3639 22.9312 38.4404 23.3408 38.8476C23.5547 39.0602 23.7025 39.3748 23.6708 39.8472C23.6705 39.8521 23.6704 39.857 23.6704 39.8619C23.6704 40.2757 23.4494 40.5793 23.1475 40.7893C22.8109 41.0235 22.3751 41.1462 21.9774 41.1698C21.9737 41.17 21.97 41.1703 21.9664 41.1707C21.9664 41.1707 21.4336 41.22 21.0624 40.8212C20.8729 40.6179 20.7314 40.3026 20.6986 39.8249V39.8236C20.6986 39.8236 20.6821 39.5605 20.7969 39.2635C20.8579 39.106 20.9507 38.9359 21.1115 38.7903C21.3525 38.5724 21.7172 38.397 22.2869 38.3595L22.2878 38.3593ZM33.5596 39.2939C33.5832 38.4862 33.4825 37.8264 33.2937 37.2894C33.1194 36.7941 32.874 36.4006 32.5918 36.0887C32.2781 35.7427 31.8954 35.4664 31.4683 35.2776C30.5121 34.8509 29.5722 34.9229 29.4819 34.9311H29.4832C27.9292 34.8797 26.9281 35.4059 26.2808 36.0983C25.8423 36.5676 25.5685 37.1202 25.399 37.6358C25.1045 38.5325 25.1313 39.3186 25.1338 39.3759C25.1745 40.7919 25.6687 41.7186 26.2916 42.3291C27.5117 43.5255 29.2615 43.4986 29.2615 43.4986C30.7351 43.488 31.7023 42.9903 32.3397 42.3498C33.5277 41.1559 33.5592 39.4343 33.5596 39.2939ZM29.4885 35.3358L29.5043 35.3354C29.5043 35.3354 31.15 35.2624 32.1491 36.472C32.3717 36.7417 32.5589 37.0768 32.6931 37.4921C32.8484 37.9727 32.9306 38.5585 32.8993 39.2757L32.8991 39.2906C32.8991 39.2906 32.9099 40.8254 31.8607 41.8715C31.3216 42.4091 30.4989 42.8077 29.2541 42.8132L29.2508 42.8134C29.2508 42.8134 27.7902 42.8376 26.769 41.8411C26.244 41.3289 25.8436 40.5445 25.8053 39.3534L25.8051 39.3479C25.8051 39.3479 25.774 38.6466 26.0206 37.8321C26.1547 37.3888 26.3685 36.9107 26.7238 36.4936C27.2641 35.8593 28.1207 35.3673 29.4885 35.3358ZM37.2098 36.7285C36.4199 36.7197 35.924 37.0268 35.6038 37.4044C35.4366 37.6014 35.3227 37.8246 35.2438 38.0416C35.0517 38.5708 35.0858 39.0672 35.0885 39.1023C35.1217 39.8456 35.3716 40.3284 35.6774 40.6443C36.2996 41.287 37.1908 41.2447 37.2662 41.2401C38.0389 41.2094 38.533 40.9199 38.8503 40.5646C39.4161 39.9309 39.4071 39.0582 39.4031 38.9375C39.4124 38.6079 39.38 38.3241 39.3101 38.0839C39.2103 37.7395 39.0475 37.4782 38.8536 37.2835C38.6799 37.1083 38.4719 36.9709 38.2427 36.8798C37.7231 36.6741 37.2259 36.7267 37.2093 36.7285H37.2098ZM37.2298 37.1326H37.2316C37.2316 37.1326 37.9725 37.1405 38.4202 37.6798C38.5181 37.7977 38.5963 37.9442 38.6547 38.1231C38.7256 38.3399 38.7609 38.6041 38.7421 38.9278C38.7415 38.939 38.7417 38.9502 38.7423 38.9613C38.7423 38.9613 38.7785 39.6359 38.3471 40.1116C38.1248 40.3566 37.7734 40.5375 37.2311 40.5555L37.2159 40.5564C37.2159 40.5564 36.5964 40.6075 36.167 40.1682C35.948 39.9441 35.786 39.5949 35.7583 39.0617C35.7583 39.0582 35.758 39.0547 35.7576 39.0511C35.7576 39.0511 35.727 38.6676 35.8545 38.2443C35.9026 38.0848 35.9678 37.9176 36.0736 37.764C36.2859 37.4558 36.636 37.1962 37.2298 37.1326ZM43.0182 41.0874L43.0166 41.0876C43.751 41.0779 44.2331 40.8475 44.5528 40.5549C45.2093 39.9543 45.1882 39.0613 45.1871 39.024L45.1873 39.0357C45.1831 38.6572 45.1203 38.3481 45.011 38.0998C44.9226 37.8933 44.7934 37.7068 44.6312 37.5514C44.4719 37.3993 44.2852 37.279 44.0808 37.1969C43.6309 37.0189 43.2083 37.0468 43.1601 37.0508H43.1614C42.4257 36.9904 41.9366 37.2094 41.6063 37.5029C41.3168 37.7605 41.156 38.0901 41.0652 38.3765C40.9502 38.74 40.9595 39.0388 40.9599 39.054C40.9723 39.7687 41.221 40.2286 41.5297 40.5295C42.1021 41.0874 42.9177 41.0894 43.0182 41.0874ZM43.1585 37.4556C43.1622 37.4558 43.1659 37.4558 43.1696 37.4556C43.1696 37.4556 43.8067 37.4818 44.2108 37.953C44.2987 38.0555 44.3694 38.1828 44.4259 38.336C44.4953 38.5241 44.5347 38.7526 44.5285 39.0326V39.0463C44.5285 39.0463 44.5453 39.6524 44.0984 40.0536C43.8717 40.2572 43.5263 40.3986 43.0098 40.402L42.9979 40.4024C42.9979 40.4024 42.411 40.4308 42.0051 40.0393C41.7956 39.837 41.6434 39.5213 41.631 39.0388V39.0368C41.631 39.0368 41.6216 38.6916 41.7756 38.3276C41.8328 38.1919 41.9075 38.0506 42.0219 37.9253C42.2479 37.6774 42.598 37.4807 43.1585 37.4556ZM15.2478 23.9576C15.2478 23.9576 15.8583 24.2176 17.1692 24.5238C17.5431 24.6111 17.9747 24.699 18.467 24.7695C18.8649 24.8263 19.302 24.8735 19.7783 24.8995C20.38 24.9325 21.0342 24.9193 21.7573 24.9153C21.8458 24.9225 21.9336 24.8945 22.0016 24.8374C22.0695 24.7803 22.1122 24.6986 22.1204 24.6102C22.1285 24.5218 22.1014 24.4337 22.045 24.3651C21.9885 24.2966 21.9073 24.253 21.819 24.244C21.1677 24.1193 20.5799 23.9853 20.0295 23.8783C19.7752 23.8273 19.5198 23.7815 19.2636 23.741C18.7526 23.6621 18.2399 23.5939 17.726 23.5365C16.1767 23.3689 15.4194 23.3056 15.4194 23.3056C15.3333 23.2839 15.2422 23.2971 15.1657 23.3422C15.0893 23.3874 15.0337 23.4608 15.0111 23.5467C14.9885 23.6325 15.0007 23.7239 15.045 23.8008C15.0893 23.8777 15.1622 23.934 15.2478 23.9576ZM18.5231 16.7957C18.5231 16.7957 19.046 17.469 19.8777 18.3836C20.1882 18.7264 20.5097 19.059 20.8418 19.381C21.1745 19.7027 21.5187 20.0124 21.8736 20.3094C22.4127 20.7602 22.9863 21.1751 23.5311 21.5842C23.5975 21.6435 23.6847 21.6741 23.7736 21.6694C23.8624 21.6646 23.9458 21.6249 24.0056 21.5589C24.0653 21.4929 24.0965 21.406 24.0923 21.3171C24.0882 21.2281 24.049 21.1445 23.9834 21.0843C23.5256 20.587 23.0744 20.0497 22.5965 19.5423C22.2814 19.2079 21.9574 18.882 21.6249 18.5649C21.2913 18.2483 20.9499 17.9402 20.601 17.6406C19.6697 16.8378 18.9999 16.3189 18.9999 16.3189C18.936 16.2591 18.8513 16.2264 18.7638 16.2278C18.6763 16.2293 18.5927 16.2647 18.5308 16.3266C18.4689 16.3885 18.4335 16.472 18.4321 16.5596C18.4306 16.6471 18.4633 16.7318 18.5231 16.7957ZM24.4999 14.5228C24.4999 14.5228 24.772 15.1091 25.2164 15.9834C25.3783 16.3044 25.5476 16.6217 25.7242 16.9349C25.9017 17.2468 26.0867 17.5542 26.2792 17.857C26.5645 18.306 26.8836 18.7451 27.1709 19.2149C27.1892 19.2554 27.2154 19.2919 27.248 19.3223C27.2805 19.3526 27.3187 19.3763 27.3604 19.3918C27.4022 19.4073 27.4465 19.4144 27.491 19.4127C27.5355 19.411 27.5792 19.4005 27.6195 19.3818C27.6599 19.3631 27.6962 19.3366 27.7263 19.3038C27.7564 19.271 27.7797 19.2326 27.7949 19.1907C27.8101 19.1489 27.8168 19.1045 27.8147 19.06C27.8126 19.0156 27.8017 18.972 27.7827 18.9317C27.6054 18.393 27.4302 17.8614 27.209 17.3602C27.0591 17.022 26.891 16.6922 26.7053 16.3722C26.5196 16.053 26.3182 15.7432 26.1019 15.444C25.5143 14.6273 25.0566 14.1428 25.0566 14.1428C25.0056 14.0704 24.9282 14.0211 24.8411 14.0054C24.754 13.9896 24.6642 14.0088 24.5912 14.0587C24.5181 14.1086 24.4675 14.1852 24.4504 14.2721C24.4334 14.3589 24.4511 14.449 24.4999 14.5228ZM46.5718 53.8506C46.5718 53.8506 46.5222 54.7491 46.4691 56.1492C46.4488 56.6591 46.4361 57.1692 46.431 57.6794C46.4273 58.1628 46.431 58.6757 46.4447 59.2089C46.4639 59.9487 46.5154 60.7181 46.5264 61.5102C46.5236 61.5975 46.5547 61.6826 46.6134 61.7474C46.672 61.8122 46.7534 61.8518 46.8406 61.8577C46.9278 61.8636 47.0139 61.8355 47.0808 61.7792C47.1476 61.723 47.1901 61.6429 47.1991 61.556C47.3194 60.7611 47.4377 59.9866 47.4985 59.2382C47.5426 58.6977 47.5609 58.1762 47.562 57.6849C47.5622 57.1668 47.5434 56.6488 47.5058 56.132C47.4051 54.7121 47.2449 53.8089 47.2449 53.8089C47.2371 53.7214 47.1954 53.6404 47.1288 53.5832C47.0621 53.5259 46.9758 53.4969 46.8881 53.5024C46.8004 53.5078 46.7183 53.5472 46.6592 53.6122C46.6002 53.6773 46.5688 53.7628 46.5718 53.8506ZM51.3773 52.9572C51.3773 52.9572 51.5613 53.7803 51.9786 54.9465C52.1331 55.3807 52.3072 55.8078 52.5001 56.2263C52.6937 56.6458 52.9083 57.0551 53.1432 57.4529C53.4953 58.0473 53.9069 58.6182 54.3248 59.1736C54.373 59.2471 54.4479 59.2988 54.5337 59.3178C54.6194 59.3369 54.7092 59.3217 54.7839 59.2756C54.8587 59.2295 54.9125 59.1561 54.9339 59.0709C54.9554 58.9858 54.9428 58.8956 54.8988 58.8196C54.5998 58.2165 54.3502 57.5835 54.0809 56.9713C53.9007 56.561 53.7153 56.1531 53.5246 55.7476C53.3323 55.3417 53.1346 54.9384 52.9315 54.5378C52.3873 53.4575 52.0116 52.7289 52.0116 52.7289C51.9805 52.6459 51.918 52.5785 51.8375 52.5413C51.7571 52.5041 51.6653 52.5001 51.5819 52.5301C51.4985 52.5601 51.4303 52.6217 51.392 52.7017C51.3537 52.7816 51.3484 52.8734 51.3773 52.9572ZM54.223 48.8278C54.223 48.8278 54.6606 49.4787 55.4663 50.2937C55.7658 50.5977 56.0845 50.8822 56.4203 51.1454C56.7576 51.4101 57.1135 51.65 57.4854 51.8633C58.0369 52.1777 58.6359 52.4315 59.2553 52.6472C59.3363 52.685 59.429 52.689 59.513 52.6585C59.597 52.6279 59.6655 52.5653 59.7033 52.4842C59.7411 52.4032 59.7452 52.3105 59.7146 52.2265C59.6841 52.1425 59.6214 52.074 59.5404 52.0362C59.192 51.826 58.8668 51.5916 58.5436 51.3532C58.2801 51.1589 58.0347 50.9526 57.7833 50.7612C57.3785 50.4534 56.9897 50.159 56.6358 49.8828C56.4333 49.7246 56.2375 49.5807 56.0564 49.443C55.244 48.825 54.7269 48.3799 54.7269 48.3799C54.6674 48.3135 54.584 48.2734 54.495 48.2683C54.4059 48.2632 54.3185 48.2937 54.2519 48.3529C54.1852 48.4122 54.1448 48.4954 54.1394 48.5844C54.134 48.6734 54.164 48.761 54.223 48.8278Z" fill="#2C204D"/>
<path d="M70.5282 12.0204C73.8042 15.6293 76.4711 19.722 78.5104 24.1433C78.947 25.0932 80.3311 24.2414 79.9018 23.2984C77.823 18.7296 75.0052 14.5492 71.6137 10.8585C70.9209 10.1067 69.8423 11.2612 70.521 12.0135L70.5282 12.0204Z" fill="#2C204D"/>
<path d="M79.983 28.3534C80.0291 28.5409 80.0808 28.7367 80.1187 28.93C80.1376 29.0267 80.1376 29.0267 80.1301 28.9464C80.1392 28.9767 80.1458 29.0209 80.1548 29.0512C80.1762 29.1339 80.1893 29.2224 80.2107 29.3051C80.2831 29.6696 80.3416 30.0317 80.3918 30.3995C80.4924 31.1351 80.5732 31.86 80.6156 32.5998C80.6364 33.0126 81.0529 33.3801 81.4706 33.3315C81.9105 33.2795 82.2183 32.9172 82.1966 32.4682C82.129 30.8913 81.8762 29.3464 81.4687 27.8246C81.3652 27.4331 80.8382 27.2041 80.4754 27.3486C80.0495 27.5251 79.9008 27.9225 79.9994 28.3419L79.983 28.3534Z" fill="#2C204D"/>
<path d="M1.21954 59.5405C4.68563 65.1439 8.83201 70.7123 13.8925 74.9926C14.4477 75.4646 15.3339 74.6524 14.8295 74.0943C12.6071 71.6435 10.3216 69.26 8.24605 66.6823C6.17051 64.1046 4.26182 61.3977 2.51222 58.5828C1.96174 57.6979 0.680103 58.6644 1.21954 59.5405Z" fill="#2C204D"/>
</svg>
