<svg width="56" height="57" viewBox="0 0 56 57" fill="none" xmlns="http://www.w3.org/2000/svg">
<path d="M5.44225 51.7281C5.44225 52.3054 5.9137 52.7819 6.49435 52.7904C12.8473 52.8778 17.831 53.0384 23.8826 53.1482C26.7116 53.8759 36.0942 56.1549 36.8837 56.1549C36.9958 56.1549 37.1057 56.1358 37.2104 56.1012C37.5992 56.1194 37.9892 56.1137 38.3746 56.0591C38.698 56.0132 38.9582 55.7773 39.065 55.4686C39.3319 54.6975 39.6127 53.8874 39.8815 53.1109C43.9626 52.9921 43.7573 53.0073 44.0877 52.7851C44.3699 52.6655 44.5328 52.5379 44.8667 52.3352C45.4224 51.9979 45.784 51.4147 45.8174 50.7655C46.2454 42.4603 46.4274 34.2552 46.4439 25.997C47.6833 21.3294 48.896 16.6076 50.139 11.9665C50.3419 11.2091 49.9217 10.7119 49.8035 10.372C49.7882 9.95258 49.539 9.56936 49.142 9.42415C48.1336 9.02977 47.1817 8.67089 46.2481 8.32565C46.2393 7.94244 46.2333 7.56266 46.224 7.17876C46.2063 6.44902 45.7183 6.11479 44.9638 5.23512C44.8097 4.92057 44.5198 4.67966 44.154 4.63342C44.1536 4.63342 44.1532 4.63342 44.1528 4.63342C39.6964 4.08134 35.3228 3.72738 30.9957 3.54286C30.9916 3.54186 30.9883 3.53911 30.9842 3.53816C24.9132 1.96043 18.8863 0.805918 12.5619 0.00859211C12.0071 -0.0599678 11.5039 0.288756 11.3917 0.805071L10.5697 4.05198C9.17284 4.18403 7.77641 4.3295 6.37966 4.50138C5.84514 4.56655 5.44225 5.02108 5.44225 5.5594V24.2455L0.0319454 45.5577C-0.113472 46.1376 0.254404 46.7016 0.793722 46.8367C2.38224 47.2675 3.92838 47.6891 5.44225 48.1045V51.7281ZM29.5564 53.2168C31.5758 53.2292 33.6779 53.244 37.2654 53.1756C37.0874 53.7249 36.9098 54.2763 36.7305 54.8175C34.3886 54.3333 32.0337 53.8076 29.5564 53.2168ZM48.4597 10.5533C47.5649 13.5003 47.0749 15.8236 46.4207 18.8298C46.3927 15.8104 46.3423 12.7735 46.2774 9.72002C46.9829 9.98363 47.7063 10.2597 48.4597 10.5533ZM12.6008 1.32393C16.7222 1.84923 20.713 2.54414 24.6768 3.39474C20.4043 3.38987 16.168 3.57402 11.9404 3.93401L12.6008 1.32393ZM6.74235 5.76677C18.8868 4.28724 31.0058 4.3304 43.7769 5.89712C43.4554 12.7624 44.8832 29.236 43.2848 51.69C30.386 52.247 19.8692 51.6784 6.74235 51.4937V5.76677ZM1.35236 45.6415L5.44225 29.5302V46.756C4.10829 46.3909 2.75212 46.0211 1.35236 45.6415Z" fill="#5DC4F1"/>
<path d="M12.2927 22.2634C29.9911 22.4212 28.0412 22.3029 30.8864 22.4648C36.8526 22.8072 38.7197 22.4897 38.6565 16.5814L38.6531 12.2316C38.6531 10.6624 37.5558 9.38513 36.207 9.38513H12.3071C10.9583 9.38513 9.86096 10.6624 9.86096 12.2316V19.416C9.86096 20.9768 10.9516 22.2541 12.2927 22.2634ZM11.1611 12.2316C11.1611 11.3937 11.6858 10.6852 12.3071 10.6852H36.207C36.8283 10.6852 37.353 11.3937 37.353 12.2316L37.3564 16.5949C37.4052 21.2538 36.7407 21.4975 30.9609 21.1673C28.0795 21.0017 29.9198 21.1208 12.3016 20.9633C11.6833 20.9591 11.1611 20.2506 11.1611 19.416V12.2316Z" fill="#5DC4F1"/>
<path d="M9.673 28.29H27.7055C28.0644 28.29 28.3556 27.9988 28.3556 27.6399C28.3556 27.281 28.0644 26.9899 27.7055 26.9899H9.673C9.31412 26.9899 9.02295 27.281 9.02295 27.6399C9.02295 27.9988 9.31412 28.29 9.673 28.29Z" fill="#5DC4F1"/>
<path d="M9.44448 35.829H33.2585C33.6173 35.829 33.9085 35.5379 33.9085 35.179C33.9085 34.8201 33.6173 34.5289 33.2585 34.5289H9.44448C9.0856 34.5289 8.79443 34.8201 8.79443 35.179C8.79443 35.5379 9.0856 35.829 9.44448 35.829Z" fill="#5DC4F1"/>
<path d="M25.1342 42.1856C25.1342 41.8267 24.843 41.5355 24.4842 41.5355H9.06411C8.70523 41.5355 8.41406 41.8267 8.41406 42.1856C8.41406 42.5445 8.70523 42.8356 9.06411 42.8356H24.4842C24.843 42.8356 25.1342 42.5445 25.1342 42.1856Z" fill="#5DC4F1"/>
<path d="M31.0667 42.0684V46.5173C31.0667 46.7857 31.284 46.9967 31.546 46.9967H39.0119C39.274 46.9967 39.4913 46.7857 39.4913 46.5173V42.1067C39.4913 41.8191 39.2292 41.6018 38.9544 41.6274L31.5524 41.589C31.2719 41.5762 31.0667 41.8081 31.0667 42.0684Z" fill="#5DC4F1"/>
<path d="M49.0899 7.19298C49.7758 7.19298 49.6991 6.53677 51.1137 3.9639C51.2868 3.64903 51.1721 3.25376 50.8572 3.08109C50.5436 2.90672 50.1479 3.02268 49.9744 3.33755C49.0451 5.02646 49.1156 5.10276 48.5152 6.23992C48.2846 6.67773 48.6093 7.19298 49.0899 7.19298Z" fill="#5DC4F1"/>
<path d="M50.6736 8.54564C50.7988 8.73269 51.0049 8.83426 51.2144 8.83426C51.3389 8.83426 51.4641 8.79872 51.575 8.72508C52.9833 7.78349 53.4001 7.36357 54.5912 6.48799C54.8807 6.27554 54.9429 5.86842 54.7305 5.57894C54.5176 5.28947 54.1109 5.22768 53.8218 5.44013C52.6238 6.3192 52.2233 6.72843 50.853 7.64335C50.5542 7.84311 50.4742 8.24685 50.6736 8.54564Z" fill="#5DC4F1"/>
<path d="M54.9801 11.7256C55.3052 11.7256 55.5857 11.4827 55.6247 11.1517C55.667 10.7954 55.4122 10.4721 55.0559 10.4297C53.9553 10.3003 52.989 10.3629 51.9665 10.241C51.6046 10.2037 51.2864 10.4534 51.2445 10.8106C51.2021 11.167 51.4569 11.4903 51.8133 11.5326C52.9138 11.6621 53.8801 11.5995 54.9027 11.7214C54.9289 11.7239 54.9547 11.7256 54.9801 11.7256Z" fill="#5DC4F1"/>
</svg>
