<svg width="80" height="82" viewBox="0 0 80 82" fill="none" xmlns="http://www.w3.org/2000/svg">
<circle cx="40" cy="42" r="40" fill="#864113"/>
<circle cx="40" cy="40" r="40" fill="#F76F14"/>
<path d="M21.562 56.3511C20.2235 57.6265 20.0741 58.628 20.0064 60.6375C19.9602 62.0093 20.1532 63.6951 20.9585 64.514C21.8961 65.4674 23.2461 65.4464 24.5894 65.4724C34.2596 65.6592 43.9298 65.8461 53.6001 66.033C55.3115 66.066 57.2808 65.9857 58.3472 64.6591C58.9855 63.865 59.1215 62.813 59.0071 61.7836C59.1767 60.9126 59.0179 58.2808 58.9725 57.5434C58.8914 56.2279 57.5573 55.214 55.869 55.1836C45.6861 55.0048 35.3516 54.9745 24.2742 55.0919C23.9761 55.0952 23.6941 55.14 23.4218 55.2022C23.4613 55.1774 23.4925 55.1422 23.5334 55.1191C23.4387 55.1522 23.3523 55.204 23.2597 55.2423C22.5338 55.4416 21.937 55.8361 21.562 56.3511ZM22.2975 57.5624C22.3164 56.8538 23.2087 56.2673 24.2867 56.2559C35.3531 56.1392 45.6766 56.1695 55.8485 56.3476C56.8886 56.3658 57.7688 56.9342 57.8108 57.6147C57.8873 58.8552 57.9567 60.1737 57.8927 61.4552C57.8589 62.1304 56.9382 62.6957 55.8769 62.6957C55.7454 62.6957 30.7402 62.6775 24.1279 62.5903C23.1993 62.5789 22.125 62.0484 22.1455 61.2581C22.1794 60.0298 22.2653 58.8065 22.2975 57.5624Z" fill="white"/>
<path d="M25.2899 33.0014C24.6731 33.0014 24.1241 33.3455 23.8554 33.9002C23.8214 33.9705 23.8087 34.0449 23.7855 34.1175C23.1672 34.935 22.8743 35.9482 23.2079 37.0775C23.5489 38.2317 24.3465 39.1796 25.1234 40.0902C28.4907 44.0369 31.865 47.9911 35.6012 51.5789C37.1109 53.0287 38.7226 54.1971 40.6101 53.187C40.8456 53.1073 41.0641 52.9798 41.24 52.7996C46.4065 47.518 51.14 41.499 56.1508 35.8394C57.0626 34.8106 56.3377 33.1916 54.9656 33.1916H47.2501C47.278 28.6793 47.6077 24.192 47.6157 19.5255C47.618 17.8288 46.3631 16.4231 44.6963 16.2564C41.3897 15.926 38.3407 15.9707 35.3754 16.3928C35.107 16.4309 34.8557 16.5132 34.6138 16.6139C33.1193 16.9763 31.8735 17.5584 31.2972 19.3106C30.4685 21.8301 31.5476 24.0931 31.1718 33.0418C30.6689 33.0383 25.8064 33.005 25.2899 33.0014ZM33.2684 34.22C33.5878 34.22 33.8481 33.9623 33.8504 33.6418C33.8824 29.0177 33.7814 24.2097 33.7769 19.6066C33.7761 18.5737 34.5335 17.6879 35.5391 17.5447C38.4112 17.137 41.3685 17.0945 44.5808 17.4143C45.6489 17.5212 46.4533 18.4282 46.4518 19.524C46.4442 24.2763 46.0842 29.1272 46.0842 33.7736C46.0842 34.0949 46.3449 34.3556 46.6662 34.3556H54.9656C55.3378 34.3556 55.5239 34.7918 55.2793 35.0679C50.2579 40.7399 45.5398 46.7381 40.4076 51.9857C40.2108 52.1888 39.9279 52.1311 39.7851 51.9713C33.0657 44.5101 28.0756 38.7523 24.9542 34.8573C24.7297 34.577 24.9309 34.1654 25.2896 34.1654C25.3677 34.1659 33.374 34.22 33.2684 34.22Z" fill="white"/>
<path d="M56.6173 31.082L57.571 27.8181C57.6608 27.5097 57.4839 27.1869 57.1751 27.0967C56.8689 27.0073 56.5434 27.1839 56.4533 27.4923L55.5003 30.7561C55.4102 31.0645 55.5871 31.3874 55.8955 31.4775C56.2037 31.5674 56.5271 31.3915 56.6173 31.082Z" fill="white"/>
<path d="M61.868 29.9572C62.1026 29.7375 62.1143 29.3692 61.8942 29.135C61.6744 28.8993 61.3061 28.8887 61.0716 29.1085L58.1942 31.807C57.8112 32.1665 58.0671 32.8134 58.5925 32.8134C59.0038 32.8134 58.9013 32.6621 61.868 29.9572Z" fill="white"/>
<path d="M62.8589 36.0826C63.145 36.0826 63.3947 35.8712 63.4348 35.5802C63.4784 35.2619 63.256 34.9679 62.9377 34.924L58.993 34.3806C58.6713 34.3351 58.3807 34.5595 58.3367 34.8777C58.2932 35.196 58.5156 35.49 58.8339 35.534L62.7786 36.0773C62.8059 36.0811 62.8324 36.0826 62.8589 36.0826Z" fill="white"/>
</svg>
