<svg width="85" height="80" viewBox="0 0 85 80" fill="none" xmlns="http://www.w3.org/2000/svg">
<circle cx="40" cy="40" r="40" fill="#5DC4F1"/>
<path d="M37.8357 22.6388C38.1007 22.8659 38.4793 23.1309 39.0093 23.2067C39.5393 23.3202 40.1071 23.2067 40.5992 23.0174C41.0914 22.8659 41.5456 22.6767 41.9621 22.601C42.1513 22.5631 42.3406 22.5631 42.5299 22.601C42.7192 22.6388 42.9085 22.6767 43.1356 22.7902C43.552 22.9417 44.0442 23.1688 44.6499 23.2445C44.9527 23.2824 45.2934 23.2824 45.5584 23.2067C45.8234 23.1688 46.0505 23.0931 46.2398 23.0174C47.4512 22.5631 48.3976 22.4117 49.1169 22.2981C49.8362 22.1845 50.3283 22.1088 50.669 22.071C51.3504 21.9574 51.3883 21.7681 51.3883 21.541C51.3883 21.3517 51.3883 21.1246 50.669 20.9731C50.2904 20.8974 49.7605 20.8596 48.9655 20.8974C48.1705 20.9353 47.0727 21.1246 45.7477 21.5788C45.5963 21.6545 45.407 21.6924 45.2934 21.7303C45.142 21.7681 45.0284 21.7681 44.877 21.7681C44.5741 21.7681 44.1577 21.6167 43.6277 21.4653C43.3627 21.3896 43.0599 21.3138 42.7192 21.3138C42.3785 21.276 42.0378 21.3517 41.7349 21.4274C41.1292 21.6167 40.675 21.8817 40.2585 22.071C39.8421 22.2602 39.5014 22.4117 39.1607 22.4117C38.82 22.4117 38.5171 22.336 38.2521 22.2224C37.7222 21.9953 37.4193 21.6924 37.3436 21.7681C37.1922 21.7303 37.3057 22.1467 37.8357 22.6388Z" fill="#2C204D"/>
<path d="M37.6465 25.9701C37.9115 26.1972 38.2901 26.4622 38.8201 26.538C39.3501 26.6515 39.9179 26.538 40.41 26.3487C40.9022 26.1972 41.3564 26.008 41.7729 25.9323C41.9621 25.8944 42.1514 25.8944 42.3407 25.9323C42.53 25.9701 42.7193 26.008 42.9464 26.1215C43.3628 26.273 43.855 26.5001 44.4607 26.5758C44.7635 26.6137 45.1042 26.6137 45.3692 26.538C45.6342 26.5001 45.8613 26.4244 46.0506 26.3487C47.262 25.8944 48.2084 25.743 48.9277 25.6294C49.647 25.5158 50.1391 25.4401 50.4798 25.4023C51.1612 25.2887 51.1991 25.0994 51.1991 24.8723C51.1991 24.683 51.1991 24.4559 50.4798 24.3044C50.1012 24.2287 49.5713 24.1909 48.7763 24.2287C47.9813 24.2666 46.8835 24.4559 45.5585 24.9101C45.4071 24.9858 45.2178 25.0237 45.1042 25.0616C44.9528 25.0994 44.8392 25.0994 44.6878 25.0994C44.3849 25.0994 43.9685 24.948 43.4385 24.7966C43.1735 24.7209 42.8707 24.6451 42.53 24.6451C42.1893 24.6073 41.8486 24.683 41.5457 24.7587C40.94 24.948 40.4857 25.213 40.0693 25.4023C39.6529 25.5915 39.3122 25.743 38.9715 25.743C38.6308 25.743 38.3279 25.6673 38.0629 25.5537C37.533 25.3266 37.2301 25.0237 37.1544 25.0994C37.003 25.0616 37.1165 25.5158 37.6465 25.9701Z" fill="#2C204D"/>
<path d="M37.4572 29.3392C37.7222 29.5664 38.1007 29.8314 38.6307 29.9071C39.1607 30.0207 39.7285 29.9071 40.2207 29.7178C40.7128 29.5664 41.1671 29.3771 41.5835 29.3014C41.7728 29.2635 41.9621 29.2635 42.1513 29.3014C42.3406 29.3392 42.5299 29.3771 42.757 29.4907C43.1735 29.6421 43.6656 29.8692 44.2713 29.9449C44.5742 29.9828 44.9149 29.9828 45.1798 29.9071C45.4448 29.8692 45.672 29.7935 45.8613 29.7178C47.0727 29.2635 48.0191 29.1121 48.7383 28.9985C49.4576 28.885 49.9497 28.8093 50.2904 28.7714C50.9719 28.6578 51.0097 28.4686 51.0097 28.2414C51.0097 28.0521 51.0097 27.825 50.2904 27.6736C49.9119 27.5979 49.3819 27.56 48.5869 27.5979C47.7919 27.6357 46.6941 27.825 45.3691 28.2793C45.2177 28.355 45.0284 28.3928 44.9149 28.4307C44.7634 28.4686 44.6499 28.4686 44.4984 28.4686C44.1956 28.4686 43.7792 28.3171 43.2492 28.1657C42.9842 28.09 42.6813 28.0143 42.3406 28.0143C41.9999 27.9764 41.6592 28.0521 41.3564 28.1278C40.7507 28.3171 40.2964 28.5821 39.88 28.7714C39.4636 28.9607 39.1228 29.1121 38.7821 29.1121C38.4414 29.1121 38.1386 29.0364 37.8736 28.9228C37.3436 28.6957 37.0407 28.3928 36.965 28.4686C36.7758 28.4307 36.9272 28.8471 37.4572 29.3392Z" fill="#2C204D"/>
<path d="M20.5733 63.3723C20.6869 63.2208 20.8004 63.1073 20.8761 62.9558C21.974 61.1009 22.3904 57.9209 22.5797 55.7631C22.7311 54.0975 22.7689 52.6968 22.7689 51.5232C22.7689 50.3497 22.7311 49.4033 22.6554 48.6462C22.5418 47.1319 22.3904 46.3369 22.2768 45.9584C22.1632 45.5419 22.0497 45.5419 21.9361 45.5419C21.8225 45.5419 21.7468 45.5798 21.6711 45.9962C21.5954 46.4126 21.5954 47.1698 21.5575 48.684C21.5575 49.4411 21.5197 50.3497 21.4818 51.4854C21.444 52.6211 21.3304 53.9839 21.179 55.6117C20.8383 58.6781 19.9297 64.5458 16.8634 63.2208C16.4469 63.0315 16.0684 62.653 15.8034 62.123C14.8191 60.1166 14.4027 53.2646 14.3649 51.0311C14.327 48.0026 14.6298 40.8099 15.5763 38.2735C15.7277 37.8193 15.9548 37.4028 16.2577 37.1C16.5227 36.7593 16.8634 36.5321 17.2798 36.3807C17.6583 36.2293 18.0369 36.1914 18.3776 36.305C18.7183 36.4186 19.0212 36.6836 19.2862 36.9864C19.8162 37.5921 20.1569 38.3871 20.4597 39.1064C21.1033 40.8478 21.4061 42.5891 21.7468 44.3684C21.8604 45.1255 21.974 45.5419 22.0118 45.5419C22.0497 45.5419 22.0875 45.1255 22.0497 44.3305C22.0118 43.5734 21.9361 42.4377 21.6711 41.0749C21.4061 39.5228 20.914 37.6678 19.9297 36.4186C19.6269 36.04 19.2105 35.6614 18.6426 35.4343C18.0748 35.2072 17.4312 35.245 16.9012 35.4343C16.3712 35.6236 15.8412 35.9264 15.4627 36.3807C15.0841 36.835 14.7813 37.3271 14.5541 37.8571C13.4563 40.5449 12.9642 47.6619 13.002 51.069C13.002 53.6432 13.3049 60.4952 14.4784 62.8423C14.857 63.5994 15.4627 64.3187 16.2955 64.6594C17.1662 65.0379 18.0748 64.9244 18.794 64.6594C19.5133 64.3565 20.119 63.9022 20.5733 63.3723Z" fill="#2C204D"/>
<path d="M61.9502 41.3777C61.988 39.8634 61.7609 38.652 61.3823 37.8192C61.0416 36.9863 60.5873 36.4942 60.2845 36.2292C59.9816 35.9264 59.7545 35.8507 59.6409 35.7749C59.5274 35.7371 59.4895 35.7749 59.4517 35.8128C59.3759 35.8885 59.4138 36.0021 59.8302 36.6078C60.0195 36.9485 60.3223 37.3649 60.5495 38.122C60.8145 38.8792 60.928 39.9013 60.8145 41.3398C60.0952 54.5517 60.7388 54.3624 60.5495 57.5045C60.5116 58.3373 60.3981 59.1701 60.1331 60.003C59.5274 61.9336 58.2403 62.7665 56.3096 63.1829C55.3253 63.3722 54.2653 63.41 53.0918 63.41C48.9655 63.41 49.9876 63.41 41.5456 63.3722C39.9935 63.3722 38.3657 63.3722 36.6243 63.3722C35.7536 63.3722 34.8451 63.3722 33.9365 63.3722C32.9901 63.3722 32.0437 63.41 31.1351 63.4479C30.2266 63.4479 29.2802 63.4479 28.4474 63.2208C28.0309 63.1072 27.6145 62.9558 27.236 62.7286C26.8574 62.5015 26.5167 62.2365 26.2138 61.9336C25.6081 61.2901 25.1917 60.4951 24.9646 59.5866C24.7374 58.678 24.6617 57.6559 24.6239 56.6338C24.5482 54.5517 24.5103 52.3939 24.5103 50.2739C24.5103 49.2139 24.5103 48.1161 24.5482 47.0561L24.586 45.4283C24.586 44.8983 24.6239 44.3305 24.586 43.7626C24.5482 42.6648 24.5103 41.6048 24.5482 40.5827C24.6996 37.0242 26.8195 35.8885 30.2645 35.3585C32.233 35.0557 34.2015 35.0178 36.1322 34.9421C38.82 34.8664 42.492 34.4878 51.0476 34.3743C52.3725 34.3743 53.5839 34.3364 54.6439 34.4121C55.7039 34.4878 56.5746 34.6393 57.2938 34.8664C58.0131 35.0557 58.5052 35.3207 58.846 35.51C59.1867 35.6992 59.3381 35.8128 59.3759 35.8128C59.3759 35.8128 59.2624 35.6235 58.9217 35.3964C58.6188 35.1692 58.0888 34.8285 57.3696 34.5635C56.6503 34.2986 55.7417 34.0714 54.6818 33.9578C54.5682 33.9578 54.4925 33.9578 54.3789 33.92C54.4925 33.6171 54.606 32.9357 54.7196 31.4215C54.8332 30.0965 54.9089 28.128 54.871 25.213C54.8332 23.7745 54.7953 22.071 54.6439 20.1024C54.606 19.6103 54.5682 19.1182 54.5303 18.5882C54.4925 18.0582 54.4546 17.4525 54.1518 16.7711C54.0003 16.4304 53.7732 16.0897 53.4704 15.8247C53.1675 15.5597 52.7889 15.3704 52.4482 15.2568C51.729 15.0297 51.0476 15.0297 50.404 15.0297C47.6783 14.954 44.082 15.0297 40.2964 15.1811C39.35 15.219 38.3657 15.2568 37.4193 15.3326C36.9272 15.3704 36.435 15.3704 35.9429 15.4083C35.4508 15.4461 34.9208 15.484 34.3529 15.6354C33.8229 15.7868 33.2172 16.0897 32.8008 16.6197C32.6115 16.8847 32.4601 17.2254 32.3844 17.4904C32.3087 17.7932 32.3087 18.0582 32.2708 18.2853C32.233 19.2318 32.1951 20.1782 32.1573 21.1246C32.0816 24.8345 32.2708 28.1658 32.5358 30.5886C32.7251 32.2165 32.9144 33.4279 33.028 34.0336C32.0816 34.0714 31.0973 34.1471 30.1509 34.2986C26.1381 34.9043 23.6396 36.4185 23.4125 40.5448C23.3368 41.6805 23.3746 42.7405 23.4125 43.8005C23.4125 44.3305 23.4125 44.8226 23.3746 45.3904L23.3368 47.0183C23.2989 48.1161 23.2989 49.1761 23.261 50.2739C23.2232 52.4317 23.261 54.5895 23.2989 56.7095C23.3368 57.7694 23.4125 58.8673 23.6775 59.9651C23.9425 61.0629 24.4724 62.1608 25.2674 62.9936C26.0624 63.8265 27.0845 64.4322 28.1824 64.6971C29.2423 64.9621 30.3023 65 31.2866 65C32.2708 65 33.1794 64.9243 34.0879 64.9243H36.7757H41.6971H53.2432C54.4168 64.9243 55.5903 64.8864 56.726 64.6593C57.2938 64.5457 57.8617 64.3943 58.3917 64.1293C61.1173 62.9936 61.9502 60.4951 62.1016 57.5802C62.1773 54.8924 61.8366 57.883 61.9502 41.3777ZM33.1794 30.5886C33.1037 28.1658 33.0658 24.8723 33.293 21.2003C33.3308 20.2917 33.4065 19.3453 33.4822 18.3989C33.5201 18.1718 33.5201 17.9446 33.558 17.7932C33.5958 17.6039 33.6715 17.4904 33.7472 17.3768C33.9365 17.1497 34.2394 16.9604 34.6558 16.8847C35.0343 16.7711 35.4886 16.7332 35.9429 16.7332C36.4729 16.6954 36.965 16.6954 37.4572 16.6575C38.4414 16.6197 39.3878 16.6197 40.3342 16.5818C44.1199 16.5061 47.7162 16.5061 50.4797 16.5061C51.0854 16.5061 51.6533 16.544 52.0697 16.6575C52.4861 16.8089 52.7132 16.9982 52.8647 17.3389C53.0161 17.6796 53.0918 18.1718 53.1297 18.6639C53.1675 19.1939 53.2054 19.686 53.2432 20.1782C53.3946 22.1088 53.4704 23.7745 53.5461 25.213C53.6596 28.0901 53.6975 30.0586 53.7354 31.3458C53.7732 32.7843 53.8489 33.5036 53.9246 33.8064C53.0539 33.7307 52.1454 33.7307 51.1233 33.6929C43.4384 33.655 38.8578 33.9578 36.2079 33.9957C35.2615 33.9957 34.2772 34.0336 33.293 34.0714C33.293 33.4279 33.2551 32.2165 33.1794 30.5886Z" fill="#2C204D"/>
<path d="M56.3475 41.6804C55.9311 41.1883 55.4768 40.999 55.1361 40.8476C54.3789 40.5826 53.849 40.5448 53.4325 40.5069C53.0161 40.469 52.7133 40.5069 52.524 40.5069C52.1454 40.5448 52.1076 40.6583 52.1076 40.7719C52.1076 40.8855 52.1076 40.9612 52.4861 41.1126C52.6754 41.1883 52.9404 41.264 53.319 41.3397C53.6975 41.4533 54.1897 41.5669 54.7575 41.8319C55.0225 41.9454 55.3254 42.1347 55.4389 42.3619C55.5146 42.4754 55.5146 42.5511 55.5146 42.6647C55.5146 42.7783 55.4768 42.8918 55.3632 43.0433C55.1739 43.3461 54.7575 43.6111 54.2275 43.8382C53.6975 44.0654 53.054 44.2168 52.3726 44.2925C50.9719 44.4818 49.1926 44.3682 47.1105 44.3304C32.6116 44.0654 31.5138 44.2925 29.6209 43.4975C29.4317 43.4218 29.2802 43.3083 29.1667 43.2325C29.0531 43.119 29.0531 43.0811 29.0531 43.0811C29.0531 43.0433 29.0531 42.9297 29.1667 42.8161C29.2045 42.7404 29.2802 42.6647 29.3559 42.6268C30.6052 41.529 33.4066 41.2262 35.1101 41.1505C36.0944 41.0747 37.0786 41.1126 38.0629 41.0747C41.8864 40.9233 45.407 40.8476 47.9434 40.8476C50.4798 40.8476 52.0697 40.8855 52.0697 40.7719C52.0697 40.6583 50.5176 40.4312 47.9434 40.2419C45.3692 40.0526 41.8485 39.9769 37.9493 39.9012C37.0029 39.8633 35.9808 39.8255 34.9208 39.8633C33.0659 39.9012 30.1509 40.1662 28.6367 41.264C28.5231 41.3397 28.3717 41.4533 28.2581 41.5669C28.1445 41.6804 28.031 41.794 27.9174 41.9454C27.7281 42.2104 27.501 42.589 27.5388 43.0811C27.5388 43.3083 27.6146 43.5733 27.7281 43.7625C27.8417 43.9518 27.9553 44.1032 28.1067 44.2168C28.3717 44.4818 28.6367 44.6332 28.9017 44.7468C31.0973 45.7311 32.498 45.6175 46.9591 45.8068C47.9812 45.8068 48.9655 45.8068 49.8741 45.8446C50.7826 45.8446 51.6533 45.8068 52.4483 45.6932C53.2433 45.5796 54.0004 45.3525 54.6818 45.0496C55.3254 44.7468 55.9311 44.3304 56.3475 43.7247C56.5368 43.4218 56.6882 43.0433 56.6882 42.6647C56.6882 42.4754 56.6503 42.2861 56.5746 42.0969C56.5368 41.9454 56.461 41.794 56.3475 41.6804Z" fill="#2C204D"/>
<path d="M56.0446 54.3246C55.9311 54.1353 55.8554 54.0217 55.7418 53.946C55.5904 53.7946 55.4768 53.8324 55.4011 53.8703C55.2875 53.9081 55.2118 53.9838 55.2118 54.1731C55.2118 54.3624 55.2497 54.7031 55.2497 55.3088C55.2497 55.6117 55.2497 55.9902 55.1361 56.4445C54.6818 58.3752 53.2433 59.2837 51.2747 59.3594C48.8898 59.473 47.6027 57.7316 47.4513 55.6117C47.1484 52.8482 49.4576 50.5768 52.2212 51.4096C52.9404 51.6368 53.5461 52.0153 54.0004 52.4317C54.9468 53.2267 55.2875 53.946 55.4011 53.8703C55.4389 53.8324 55.4011 53.6431 55.2875 53.3024C55.2118 53.151 55.0982 52.9239 54.9847 52.6967C54.909 52.5832 54.8332 52.4696 54.7575 52.356C54.6818 52.2425 54.5682 52.091 54.4547 51.9775C54.0004 51.4853 53.3947 50.9553 52.5619 50.5768C52.3347 50.5011 52.1454 50.3875 51.8804 50.3496C51.7669 50.3118 51.6533 50.2739 51.5397 50.2739C48.1327 49.8575 45.8992 52.6589 46.0884 55.6874C46.202 58.5645 48.0191 61.0251 51.4262 60.8737C54.0383 60.7223 56.1204 59.2837 56.4611 56.6338C56.5368 56.0281 56.4611 55.536 56.3853 55.1574C56.2339 54.7788 56.1204 54.5138 56.0446 54.3246Z" fill="#2C204D"/>
<path d="M30.7566 50.2361C29.9238 50.2361 28.1824 50.6146 28.1824 51.0311C28.1824 51.4475 29.9616 51.7882 30.7566 51.7882C32.2709 51.7882 32.2709 51.4475 32.2709 50.9932C32.2709 50.5768 32.233 50.2361 30.7566 50.2361Z" fill="#2C204D"/>
<path d="M37.6465 50.2361C36.8137 50.2361 35.0723 50.6146 35.0723 51.0311C35.0723 51.4475 36.8515 51.7882 37.6465 51.7882C39.1607 51.7882 39.1607 51.4475 39.1607 50.9932C39.1607 50.5389 39.1607 50.2361 37.6465 50.2361Z" fill="#2C204D"/>
<path d="M30.7566 53.2268C29.9238 53.2268 28.1824 53.6054 28.1824 54.0218C28.1824 54.4382 29.9616 54.7789 30.7566 54.7789C32.2709 54.7789 32.2709 54.4382 32.2709 53.9839C32.2709 53.5675 32.233 53.2268 30.7566 53.2268Z" fill="#2C204D"/>
<path d="M37.6465 53.2268C36.8137 53.2268 35.0723 53.6054 35.0723 54.0218C35.0723 54.4382 36.8515 54.7789 37.6465 54.7789C39.1607 54.7789 39.1607 54.4382 39.1607 53.9839C39.1607 53.5675 39.1607 53.2268 37.6465 53.2268Z" fill="#2C204D"/>
<path d="M30.7566 56.2553C29.9238 56.2553 28.1824 56.6339 28.1824 57.0503C28.1824 57.4667 29.9616 57.8074 30.7566 57.8074C32.2709 57.8074 32.2709 57.4667 32.2709 57.0124C32.2709 56.596 32.233 56.2174 30.7566 56.2553Z" fill="#2C204D"/>
<path d="M37.6465 56.2553C36.8137 56.2553 35.0723 56.6339 35.0723 57.0503C35.0723 57.4667 36.8515 57.8074 37.6465 57.8074C39.1607 57.8074 39.1607 57.4667 39.1607 57.0124C39.1607 56.596 39.1607 56.2174 37.6465 56.2553Z" fill="#2C204D"/>
<path d="M30.7566 59.2458C29.9238 59.2458 28.1824 59.6244 28.1824 60.0408C28.1824 60.4573 29.9616 60.798 30.7566 60.798C32.2709 60.798 32.2709 60.4573 32.2709 60.003C32.2709 59.5866 32.233 59.2458 30.7566 59.2458Z" fill="#2C204D"/>
<path d="M37.6465 59.2458C36.8137 59.2458 35.0723 59.6244 35.0723 60.0408C35.0723 60.4573 36.8515 60.798 37.6465 60.798C39.1607 60.798 39.1607 60.4573 39.1607 60.003C39.1607 59.5487 39.1607 59.2458 37.6465 59.2458Z" fill="#2C204D"/>
<path d="M42.1514 50.7661C41.735 50.7661 41.3943 55.4603 41.3943 57.656C41.3943 61.6687 41.735 61.7444 42.1514 61.7444C42.5678 61.7444 42.9085 61.6687 42.9085 57.656C42.9085 55.4603 42.5678 50.7661 42.1514 50.7661Z" fill="#2C204D"/>
<path d="M70.5282 12.0204C73.8042 15.6293 76.4711 19.722 78.5104 24.1433C78.947 25.0932 80.3311 24.2414 79.9018 23.2984C77.823 18.7296 75.0052 14.5492 71.6137 10.8585C70.9209 10.1067 69.8423 11.2612 70.521 12.0135L70.5282 12.0204Z" fill="#2C204D"/>
<path d="M79.983 28.3534C80.0291 28.5409 80.0808 28.7367 80.1187 28.93C80.1376 29.0267 80.1376 29.0267 80.1301 28.9464C80.1392 28.9767 80.1458 29.0209 80.1548 29.0512C80.1762 29.1339 80.1893 29.2224 80.2107 29.3051C80.2831 29.6696 80.3416 30.0317 80.3918 30.3995C80.4924 31.1351 80.5732 31.86 80.6156 32.5998C80.6364 33.0126 81.0529 33.3801 81.4706 33.3315C81.9105 33.2795 82.2183 32.9172 82.1966 32.4682C82.129 30.8913 81.8762 29.3464 81.4687 27.8246C81.3652 27.4331 80.8382 27.2041 80.4754 27.3486C80.0495 27.5251 79.9008 27.9225 79.9994 28.3419L79.983 28.3534Z" fill="#2C204D"/>
<path d="M1.21954 59.5405C4.68563 65.1439 8.83201 70.7123 13.8925 74.9926C14.4477 75.4646 15.3339 74.6524 14.8295 74.0943C12.6071 71.6435 10.3216 69.26 8.24605 66.6823C6.17051 64.1046 4.26182 61.3977 2.51222 58.5828C1.96174 57.6979 0.680103 58.6644 1.21954 59.5405Z" fill="#2C204D"/>
</svg>
