<svg width="85" height="80" viewBox="0 0 85 80" fill="none" xmlns="http://www.w3.org/2000/svg">
<circle cx="40" cy="40" r="40" fill="#5DC4F1"/>
<path d="M63.9969 56.2642L43.9271 23.6705C41.2909 19.389 38.0203 18.923 34.7264 23.1898C28.3173 31.4932 22.9955 40.571 17.6931 49.6209C16.7796 51.1797 15.8568 52.7594 15.3576 54.4959C14.8583 56.2325 14.8205 58.1723 15.6404 59.7821C16.9311 62.3163 19.8957 62.7653 22.7274 62.7243C63.5069 62.2498 61.4156 62.4137 62.7619 61.936C64.9374 61.1655 65.8633 59.2991 63.9969 56.2642ZM62.3747 60.844C61.2201 61.2529 63.1445 61.0944 22.7142 61.5651C20.6082 61.5999 18.0502 61.3982 17.0725 59.6848C16.1559 58.0804 17.0416 55.9952 18.0293 54.1683C25.9238 39.5508 32.2796 31.4298 35.3509 26.5988C36.3795 24.9805 37.4437 23.3081 38.6432 22.0445C38.9832 21.6851 39.3836 21.4463 39.8751 21.4973C40.9401 21.6078 42.1565 23.0074 42.9402 24.2795L63.01 56.8724C64.1151 58.6669 64.3779 60.1346 62.3747 60.844ZM48.4729 18.0335C48.4012 18.008 48.3251 17.9969 48.249 18.0008C48.173 18.0047 48.0985 18.0235 48.0297 18.0563C47.9609 18.089 47.8993 18.1349 47.8483 18.1915C47.7973 18.2481 47.758 18.3141 47.7325 18.3859L46.2927 22.434C46.2471 22.5774 46.2591 22.7328 46.326 22.8675C46.3929 23.0023 46.5096 23.1057 46.6514 23.1559C46.7932 23.2062 46.949 23.1994 47.0858 23.1369C47.2227 23.0745 47.3298 22.9612 47.3848 22.8212L48.8245 18.7746C48.8761 18.6298 48.868 18.4705 48.802 18.3316C48.7361 18.1928 48.6177 18.085 48.4729 18.0335ZM51.8912 21.2871C50.9517 22.5515 49.8261 23.6663 48.5525 24.5933C48.4282 24.6839 48.345 24.8202 48.3211 24.9721C48.2973 25.1241 48.3348 25.2793 48.4254 25.4036C48.516 25.5279 48.6522 25.6112 48.8042 25.635C48.9562 25.6589 49.1114 25.6214 49.2357 25.5308C50.6035 24.5346 51.8125 23.337 52.8217 21.9788C52.8671 21.9177 52.9 21.8483 52.9186 21.7744C52.9372 21.7006 52.941 21.6238 52.9299 21.5485C52.9189 21.4732 52.893 21.4008 52.854 21.3355C52.8149 21.2701 52.7634 21.2131 52.7023 21.1677C52.6412 21.1223 52.5717 21.0893 52.4979 21.0708C52.4241 21.0522 52.3473 21.0483 52.272 21.0594C52.1967 21.0705 52.1243 21.0963 52.0589 21.1354C51.9936 21.1745 51.9366 21.226 51.8912 21.2871ZM50.1461 27.3091C50.1501 27.4601 50.213 27.6036 50.3212 27.709C50.4295 27.8143 50.5746 27.8733 50.7257 27.8732C51.167 27.8238 52.2505 27.8786 53.8789 27.2349C53.9529 27.2093 54.0209 27.1691 54.0789 27.1166C54.1369 27.0641 54.1837 27.0004 54.2164 26.9293C54.2491 26.8582 54.2671 26.7813 54.2693 26.703C54.2714 26.6248 54.2577 26.547 54.229 26.4742C54.2003 26.4014 54.1572 26.3352 54.1022 26.2796C54.0472 26.2239 53.9815 26.1799 53.9091 26.1504C53.8366 26.1208 53.7589 26.1061 53.6807 26.1074C53.6025 26.1086 53.5253 26.1257 53.4538 26.1575C52.5767 26.503 51.6547 26.6908 50.7103 26.714C50.5566 26.7182 50.4109 26.7833 50.3051 26.8948C50.1993 27.0064 50.1422 27.1554 50.1461 27.3091Z" fill="#2C204D"/>
<path d="M40.4686 30.4436H39.8534C39.6574 30.4435 39.4633 30.482 39.2822 30.557C39.1011 30.632 38.9365 30.7419 38.7979 30.8805C38.6593 31.0191 38.5494 31.1836 38.4745 31.3647C38.3995 31.5458 38.361 31.7399 38.3611 31.936V48.1076C38.361 48.3036 38.3995 48.4977 38.4745 48.6788C38.5494 48.8599 38.6593 49.0245 38.7979 49.1631C38.9365 49.3017 39.1011 49.4116 39.2822 49.4865C39.4633 49.5615 39.6574 49.6 39.8534 49.5999C40.6541 49.5999 41.3141 48.9685 41.3481 48.1686C41.5722 42.7796 41.7322 37.386 41.9563 31.997C41.965 31.7963 41.9329 31.5959 41.862 31.4079C41.7912 31.2198 41.683 31.0481 41.544 30.9031C41.405 30.758 41.238 30.6425 41.0532 30.5637C40.8684 30.4849 40.6695 30.4443 40.4686 30.4444V30.4436ZM39.2035 51.9439L39.001 52.0112C38.0782 52.3744 37.5573 53.5283 37.8943 54.4611C38.2312 55.3923 39.3704 55.9457 40.3117 55.6342C41.253 55.3228 41.8381 54.1999 41.5521 53.25C41.2662 52.3002 40.1602 51.685 39.2027 51.9439H39.2035Z" fill="#2C204D"/>
<path d="M70.5282 12.0204C73.8042 15.6293 76.4711 19.722 78.5104 24.1433C78.947 25.0932 80.3311 24.2414 79.9018 23.2984C77.823 18.7296 75.0052 14.5492 71.6137 10.8585C70.9209 10.1067 69.8423 11.2612 70.521 12.0135L70.5282 12.0204Z" fill="#2C204D"/>
<path d="M79.983 28.3534C80.0291 28.5409 80.0808 28.7367 80.1187 28.93C80.1376 29.0267 80.1376 29.0267 80.1301 28.9464C80.1392 28.9767 80.1458 29.0209 80.1548 29.0512C80.1762 29.1339 80.1893 29.2224 80.2107 29.3051C80.2831 29.6696 80.3416 30.0317 80.3918 30.3995C80.4924 31.1351 80.5732 31.86 80.6156 32.5998C80.6364 33.0126 81.0529 33.3801 81.4706 33.3315C81.9105 33.2795 82.2183 32.9172 82.1966 32.4682C82.129 30.8913 81.8762 29.3464 81.4687 27.8246C81.3652 27.4331 80.8382 27.2041 80.4754 27.3486C80.0495 27.5251 79.9008 27.9225 79.9994 28.3419L79.983 28.3534Z" fill="#2C204D"/>
<path d="M1.21954 59.5405C4.68563 65.1439 8.83201 70.7123 13.8925 74.9926C14.4477 75.4646 15.3339 74.6524 14.8295 74.0943C12.6071 71.6435 10.3216 69.26 8.24605 66.6823C6.17051 64.1046 4.26182 61.3977 2.51222 58.5828C1.96174 57.6979 0.680103 58.6644 1.21954 59.5405Z" fill="#2C204D"/>
</svg>
