<svg width="85" height="80" viewBox="0 0 85 80" fill="none" xmlns="http://www.w3.org/2000/svg">
<circle cx="40" cy="40" r="40" fill="#5DC4F1"/>
<path d="M29.9686 49.985C28.8133 48.7823 27.4218 49.631 27.6516 51.2164C27.7607 51.9693 28.3463 52.5782 29.0549 52.5782C29.6238 52.5782 30.9399 50.9921 29.9686 49.985ZM29.3934 51.2907C29.3422 51.4445 29.1629 51.5743 29.0272 51.5488C28.6105 51.484 28.5554 50.5677 28.7934 50.4512C28.8469 50.4245 29.0098 50.4699 29.2285 50.6974C29.3877 50.8626 29.4552 51.106 29.3934 51.2907Z" fill="#2C204D"/>
<path d="M22.5147 48.591C22.6308 49.3914 23.252 49.9529 23.919 49.9529C25.1871 49.9529 25.7979 48.3632 24.8317 47.359C23.6764 46.1569 22.2847 47.0049 22.5147 48.591ZM24.2564 48.6653C24.2049 48.8198 24.0277 48.9516 23.8902 48.9228C23.4744 48.858 23.4174 47.943 23.6568 47.8258C23.7073 47.8011 23.8718 47.8432 24.0912 48.0707C24.2504 48.2365 24.3183 48.4807 24.2564 48.6653Z" fill="#2C204D"/>
<path d="M42.1698 34.3623C41.2026 34.389 40.2594 35.0783 39.9179 36.6006C39.7701 37.2624 40.7709 37.4903 40.9206 36.8253C41.0263 36.3538 41.2025 35.9866 41.4447 35.7351C41.6978 35.4715 42.0497 35.3384 42.343 35.3859C42.7409 35.4561 43.1115 35.8561 43.4446 36.5752C44.3125 38.4474 44.6215 40.6031 44.3141 42.6446C44.2987 42.7473 44.3233 42.8432 44.3638 42.9311C44.3612 43.3063 44.713 43.5243 45.0285 43.4231C47.3121 42.6874 50.1983 40.9516 51.4514 38.2875C52.0564 37.0006 52.1725 35.8748 51.7969 34.9411C51.3471 33.8234 50.1417 33.0194 48.7257 32.8923C46.887 32.7275 43.6204 34.1046 42.1698 34.3623ZM48.6338 33.9157C52.7824 34.2882 51.2012 39.8982 45.3977 42.1951C45.704 39.0087 44.5941 36.0429 43.6687 35.0403C45.9879 34.2801 44.77 34.6747 46.3428 34.2568C47.1375 34.0468 47.889 33.8468 48.6338 33.9157Z" fill="#2C204D"/>
<path d="M27.8426 39.1371C28.2025 38.7226 28.6391 37.6845 28.6449 37.1285C28.6563 36.0341 27.5841 35.4889 26.8774 36.0723C26.7192 36.0763 26.6192 36.1171 26.5188 36.2114C26.1322 36.5753 25.6028 37.0729 25.4226 37.7626C25.025 39.2864 26.7158 40.431 27.8426 39.1371Z" fill="#2C204D"/>
<path d="M35.7447 42.6098C37.4399 42.6098 38.1666 40.6874 37.3336 39.5129C36.6348 38.5269 35.1119 38.5076 34.5413 39.0781C34.5126 39.0942 34.4852 39.1122 34.4587 39.1343C33.1455 40.2241 33.7384 42.6121 35.7447 42.6098Z" fill="#2C204D"/>
<path d="M36.4753 33.8334C36.6538 33.9487 36.8857 33.9412 37.0573 33.8154C39.5264 31.9994 42.3973 31.1178 45.5891 31.1907C46.0785 31.1937 46.29 30.6079 45.946 30.2964C45.4259 29.8255 44.4203 29.0369 43.6681 28.4577C43.5792 28.3894 43.4701 28.352 43.3578 28.3513C39.8796 28.354 36.688 29.5399 34.1306 31.8509C33.8802 32.0765 33.9121 32.4811 34.1975 32.6642C34.9151 33.1244 35.8475 33.4299 36.4753 33.8334ZM43.1798 29.3787C43.5069 29.6316 43.8711 29.9152 44.2143 30.1894C41.4602 30.3586 38.9478 31.2302 36.7258 32.7887C36.2901 32.5481 35.79 32.3395 35.3744 32.1378C37.6124 30.3238 40.2341 29.3961 43.1798 29.3787Z" fill="#2C204D"/>
<path d="M53.9797 30.0263C50.8777 27.3221 46.6158 25.825 42.2366 25.8942C43.3699 24.5497 43.9069 22.7419 43.5421 20.9121C42.7014 16.6921 37.7136 14.7446 34.0993 17.2012C33.2449 17.4064 32.2467 18.8112 31.919 19.3478C30.0327 22.4364 31.2139 26.0115 34.2834 27.6576C33.5143 27.9889 32.7617 28.3753 32.0207 28.795C29.6456 25.5809 24.878 25.3529 22.8951 27.5149C22.7704 27.5797 22.6772 27.6916 22.6383 27.8265C21.3411 29.6534 22.0029 33.4592 24.6861 35.3439C24.7125 35.3622 24.7416 35.372 24.7698 35.3849C23.3467 37.6478 22.5744 40.2489 22.7784 42.8415C22.0275 42.9857 21.3238 43.3038 20.6882 43.7965C17.7184 46.0994 20.4242 52.5904 26.2851 54.8733C26.1868 55.3304 26.4611 54.7588 26.361 56.7473C26.2721 59.1429 27.5971 59.6401 30.0545 59.9509C31.5963 60.4376 34.9193 60.4074 36.6287 60.1865C37.082 60.2844 37.538 60.3684 37.9976 60.4354C38.0245 61.2032 38.0499 61.8204 38.0353 62.3605C38.0055 63.4427 38.4433 64.7321 39.472 65.2003C39.9617 66.1349 53.0388 66.0856 53.0388 65.1593C53.0388 64.7894 50.4466 64.4848 47.0982 64.4399C48.6281 63.1493 48.5373 61.1063 48.2375 59.1864C48.2602 59.1771 48.2833 59.1684 48.306 59.1589C48.7426 59.9206 49.5721 60.1462 50.4501 60.1526C52.9485 60.6727 58.2642 60.4058 58.2642 59.7016C58.2642 59.4186 57.2836 59.174 55.8563 59.0544C57.2638 57.9853 56.6155 56.5388 56.313 52.9796C62.0394 45.2474 59.5251 34.8748 53.9797 30.0263ZM26.1993 43.3033C30.712 43.7232 35.9539 47.2021 35.6674 51.0638C35.5629 52.4754 34.6576 53.8088 32.9049 54.4337C35.4711 51.3493 29.9077 44.8756 26.1993 43.3033ZM42.5348 21.1128C43.0679 23.789 41.2656 26.4123 38.5172 26.9608C34.1106 27.8409 30.8182 23.0597 33.3371 19.3817C35.8645 15.6947 41.6774 16.8148 42.5348 21.1128ZM31.1287 29.3109C30.2456 29.8619 29.5767 30.3381 28.9033 30.873C27.7028 29.3771 26.4246 28.0149 24.5484 27.5666C26.5882 26.6271 29.4834 27.1789 31.1287 29.3109ZM25.2767 34.5024C23.0303 32.9255 22.5547 29.7837 23.4317 28.4676C25.4233 28.4156 26.9303 30.0552 28.1145 31.5307C27.0265 32.4813 26.0989 33.4943 25.3293 34.5578C25.3107 34.5399 25.2984 34.5177 25.2767 34.5024ZM35.7023 28.2058C36.7895 28.4715 37.9818 28.4416 38.9782 27.9027C39.7347 27.7179 40.4276 27.4042 41.0339 26.9845C45.3026 26.5843 49.9538 27.879 53.3041 30.8002C57.7525 34.6897 59.5631 41.4688 57.7077 47.2853C55.8983 52.9541 50.8386 57.4911 44.8167 58.8442C39.8333 59.9687 34.2839 58.8792 29.8132 55.9979C31.141 55.9067 32.5933 55.7581 33.9083 55.1313C36.7736 53.7649 37.7174 50.2606 35.4126 47.1415C32.68 43.4419 27.2614 41.7351 23.7862 42.369C23.5517 35.8543 29.5835 30.4833 35.7023 28.2058ZM21.3177 44.6085C22.0327 44.054 22.8343 43.7757 23.7119 43.7757C27.9593 43.7757 33.8261 51.0063 32.2702 53.5735C31.5712 54.7293 29.7057 54.6075 29.1519 54.5427C22.4429 53.7573 18.7419 46.6059 21.3177 44.6085ZM27.4173 55.7992C29.0388 57.0648 30.8003 58.1218 32.6609 58.9202C31.912 58.9579 30.8867 59.1878 28.7997 58.6783C27.0355 58.2458 27.4474 57.4969 27.4173 55.7992ZM44.0923 64.3932C43.3099 64.4645 40.3749 64.638 39.7336 64.1779C39.2747 63.8494 39.0453 63.0113 39.062 62.3886C39.0778 61.8193 39.0525 61.1936 39.0295 60.5576C41.9865 60.8342 44.6618 60.4683 47.2556 59.5611C47.8066 63.2298 46.6015 64.1656 44.0923 64.3932ZM53.9556 58.7392C53.0565 58.9346 50.4993 59.3235 49.66 59.0114C49.4917 58.9491 49.3545 58.8475 49.2598 58.7321C51.5958 57.6149 53.7094 56.0462 55.4043 54.1129C55.7416 57.348 56.3042 58.2288 53.9556 58.7392Z" fill="#2C204D"/>
<path d="M51.9262 26.2585L52.1583 22.078C52.1955 21.408 51.1708 21.3268 51.1323 22.0211L50.9002 26.2009C50.8626 26.878 51.8879 26.9399 51.9262 26.2585Z" fill="#2C204D"/>
<path d="M54.5178 27.2211L57.0184 22.547C57.339 21.9491 56.4341 21.4618 56.1128 22.0627L53.6122 26.7368C53.2911 27.3357 54.1983 27.8208 54.5178 27.2211Z" fill="#2C204D"/>
<path d="M59.6067 25.4405L56.587 29.1568C56.1583 29.684 56.9552 30.3322 57.3843 29.8043L60.404 26.0893C60.8323 25.5609 60.036 24.9141 59.6067 25.4405Z" fill="#2C204D"/>
<path d="M36.1406 22.2137C36.6795 22.4228 37.2115 22.3244 37.6422 22.3755C38.0666 22.425 38.4442 22.6571 38.582 22.9534C38.6994 23.2056 38.6616 23.7039 38.2857 23.9454C38.0108 24.1226 37.4837 24.0223 37.3208 23.8176C37.1439 23.5962 36.8208 23.5601 36.5988 23.7367C36.0621 24.1657 36.7387 25.0907 37.9591 25.0606L38.0626 25.433C38.2433 26.0884 39.2337 25.8147 39.0532 25.1601L38.9352 24.7352C40.2508 23.7549 39.7838 21.5914 37.7613 21.3548C37.3792 21.3102 36.7925 21.3647 36.5121 21.2558C35.9493 21.0382 36.0571 20.2295 36.8359 19.9783C37.19 19.8626 37.6185 19.9114 37.9549 20.102C38.2014 20.2431 38.5151 20.1555 38.6552 19.9087C39.0417 19.2279 37.8972 18.8541 37.0978 18.9012C37.0847 18.8579 37.0746 18.8138 37.0492 18.7736C37.0312 18.7449 37.0235 18.7061 37.0292 18.6726C37.077 18.393 36.8891 18.1275 36.6095 18.08C36.1383 17.9947 35.8049 18.5302 36.1134 19.1907C35.6144 19.4758 35.2497 19.9358 35.1526 20.4579C35.0169 21.1883 35.4416 21.9428 36.1406 22.2137Z" fill="#2C204D"/>
<path d="M70.5282 12.0204C73.8042 15.6293 76.4711 19.722 78.5104 24.1433C78.947 25.0932 80.3311 24.2414 79.9018 23.2984C77.823 18.7296 75.0052 14.5492 71.6137 10.8585C70.9209 10.1067 69.8423 11.2612 70.521 12.0135L70.5282 12.0204Z" fill="#2C204D"/>
<path d="M79.983 28.3534C80.0291 28.5409 80.0808 28.7367 80.1187 28.93C80.1376 29.0267 80.1376 29.0267 80.1301 28.9464C80.1392 28.9767 80.1458 29.0209 80.1548 29.0512C80.1762 29.1339 80.1893 29.2224 80.2107 29.3051C80.2831 29.6696 80.3416 30.0317 80.3918 30.3995C80.4924 31.1351 80.5732 31.86 80.6156 32.5998C80.6364 33.0126 81.0529 33.3801 81.4706 33.3315C81.9105 33.2795 82.2183 32.9172 82.1966 32.4682C82.129 30.8913 81.8762 29.3464 81.4687 27.8246C81.3652 27.4331 80.8382 27.2041 80.4754 27.3486C80.0495 27.5251 79.9008 27.9225 79.9994 28.3419L79.983 28.3534Z" fill="#2C204D"/>
<path d="M1.21954 59.5405C4.68563 65.1439 8.83201 70.7123 13.8925 74.9926C14.4477 75.4646 15.3339 74.6524 14.8295 74.0943C12.6071 71.6435 10.3216 69.26 8.24605 66.6823C6.17051 64.1046 4.26182 61.3977 2.51222 58.5828C1.96174 57.6979 0.680103 58.6644 1.21954 59.5405Z" fill="#2C204D"/>
</svg>
