<svg width="85" height="80" viewBox="0 0 85 80" fill="none" xmlns="http://www.w3.org/2000/svg">
<circle cx="40" cy="40" r="40" fill="#5DC4F1"/>
<path d="M19.86 60.7168C31.8767 67.3909 48.8767 67.4451 60.435 59.7784C62.3659 57.9676 59.685 55.5743 57.7242 56.8793C56.2677 57.9398 54.6715 58.7938 52.9809 59.4168C51.9653 56.1651 50.9492 52.9151 49.9325 49.6668C51.9275 50.1201 53.675 48.3993 52.4467 46.5234C51.1475 45.0334 48.6834 45.9184 46.9375 45.7034V40.9884C59.5942 50.5243 78.2775 36.3601 60.9209 25.9459C61.2719 25.7503 61.5532 25.4499 61.7254 25.0867C61.8976 24.7236 61.9522 24.3157 61.8816 23.9201C61.8109 23.5244 61.6186 23.1606 61.3314 22.8795C61.0441 22.5984 60.6763 22.4139 60.2792 22.3518C61.66 21.0076 63.8542 17.8309 60.3084 18.0234C60.8267 16.5168 58.9434 16.2026 57.8642 16.3843C56.1834 16.6243 52.25 15.3584 52.3217 18.0243C48.905 18.0284 50.9184 21.1076 52.3467 22.4409C50.52 22.8368 50.1217 25.5243 51.9484 26.1843C47.7709 27.8251 44.6409 31.9759 44.9175 36.5318H27.6325C26 33.5718 24.3709 14.8901 19.1009 22.4234C20.4517 29.4584 23.0359 36.3951 24.7942 43.3943C25.7484 45.9693 25.5559 50.5009 29.49 49.6443L26.485 59.2676C24.9269 58.644 23.4369 57.8621 22.0384 56.9343C19.1925 55.3659 16.3959 59.1418 19.86 60.7168ZM43.61 45.7018V40.4651H45.7317V45.7018H43.61ZM37.7767 45.7018V40.4651H42.3934V45.7018H37.7767ZM34.4392 45.7018V40.4651H36.5584V45.7018H34.4392ZM30.2084 45.7018C29.7167 43.9557 29.2256 42.2101 28.735 40.4651H33.2292V45.7018H30.2084ZM51.75 18.9493C52.3334 18.8151 54.1567 19.3251 53.8734 18.2318C53.6975 18.0318 53.2067 17.5043 53.6442 17.2809C55.3759 17.3209 57.21 17.2018 58.9292 17.3301C59.3975 17.6126 59.075 18.0401 58.8325 18.3168C58.7984 20.3601 63.9159 16.5893 59.0125 22.2926C57.2625 22.2868 55.5125 22.2926 53.7625 22.2926C53.3159 21.2859 51.1334 19.9418 51.75 18.9493ZM52.5 23.1276C52.6166 23.072 52.7435 23.0414 52.8725 23.0376C54.5742 23.2601 63.5392 21.9676 59.9217 25.6034C58.0184 25.3034 49.8075 27.0126 52.505 23.1276H52.5ZM52.3334 26.4609C60.4834 24.3776 70.145 31.3868 65.3042 39.9368C61.0792 44.2468 52.6134 44.1434 48.0134 40.4618C54.1875 40.5284 53.065 35.4418 46.1284 36.5318C46.0082 34.4204 46.5387 32.3229 47.6483 30.5226C48.7579 28.7223 50.3932 27.3058 52.3334 26.4643V26.4609ZM21.0509 57.4818C22.8759 58.3568 25.5217 60.8568 27.4675 59.7868C28.125 56.3984 30.6967 51.9351 30.4067 49.0368C29.1392 49.1384 27.4209 49.1643 27.2592 47.5284C24.9931 39.4923 22.7275 31.4551 20.4625 23.4168C20.1959 22.7293 20.1167 21.7501 20.975 21.4884C23.1109 21.4001 22.7309 25.1259 23.5234 26.5843C24.7617 29.9226 25.1209 34.2876 26.82 37.1293C34.3375 37.1534 41.875 37.0926 49.3792 37.1293C50.685 37.2959 51.4025 39.4001 49.8475 39.8659C49.0567 39.9409 48.2175 39.8234 47.4125 39.8659C47.3039 39.8042 47.182 39.7694 47.0571 39.7646C46.9323 39.7598 46.8081 39.7852 46.695 39.8384C45.6334 39.8693 44.5475 39.8709 43.4759 39.8659C41.6059 39.7909 39.5825 39.9159 37.6575 39.8659C34.6275 39.7826 31.3725 39.9168 28.2475 39.8659C28.0692 39.8659 27.3092 40.0143 27.3967 40.3268C29.0317 44.8668 27.4275 47.0126 33.3459 46.2776C34.3759 46.3876 35.5442 46.1943 36.6259 46.2543C36.8075 46.4926 37.3217 46.4518 37.5975 46.2459C39.212 46.2326 40.8264 46.2254 42.4409 46.2243C42.6734 46.4909 43.0742 46.3909 43.3867 46.2243C44.1884 46.2243 44.9892 46.2309 45.79 46.2376C47.9717 46.4959 52.3109 45.2859 51.555 49.0351C51.4942 49.0968 50.9917 49.0351 50.8967 49.0351C50.22 49.1359 48.8775 48.7218 48.5709 49.4951L51.8709 60.0534C53.9942 60.2201 56.3859 58.4201 58.2192 57.3034C59.8025 56.6201 60.2034 58.8501 59.3942 59.7409C54.5859 63.2959 48.38 64.4501 42.5225 64.8068C34.8209 65.1059 26.4109 64.1884 20.0025 59.5643C19.0734 58.6784 19.4934 56.4251 21.0509 57.4818Z" fill="#2C204D"/>
<path d="M29.7092 61.1434C36.1811 62.5599 42.8831 62.5562 49.3534 61.1326C49.5309 61.0918 49.9484 60.8976 49.8701 60.6468C48.6756 56.8218 47.4812 52.9968 46.2867 49.1718C42.2117 48.9726 36.9534 48.4218 33.0534 49.4018C32.1667 53.2243 29.9034 57.5543 29.7092 61.1434ZM34.1259 49.6951H45.1417L48.5501 60.6118C42.6727 61.7979 36.6145 61.7655 30.7501 60.5168C31.8756 56.9095 33.0017 53.3023 34.1284 49.6951H34.1259Z" fill="#2C204D"/>
<path d="M70.5282 12.0204C73.8042 15.6293 76.4711 19.722 78.5104 24.1433C78.947 25.0932 80.3311 24.2414 79.9018 23.2984C77.823 18.7296 75.0052 14.5492 71.6137 10.8585C70.9209 10.1067 69.8423 11.2612 70.521 12.0135L70.5282 12.0204Z" fill="#2C204D"/>
<path d="M79.983 28.3534C80.0291 28.5409 80.0808 28.7367 80.1187 28.93C80.1376 29.0267 80.1376 29.0267 80.1301 28.9464C80.1392 28.9767 80.1458 29.0209 80.1548 29.0512C80.1762 29.1339 80.1893 29.2224 80.2107 29.3051C80.2831 29.6696 80.3416 30.0317 80.3918 30.3995C80.4924 31.1351 80.5732 31.86 80.6156 32.5998C80.6364 33.0126 81.0529 33.3801 81.4706 33.3315C81.9105 33.2795 82.2183 32.9172 82.1966 32.4682C82.129 30.8913 81.8762 29.3464 81.4687 27.8246C81.3652 27.4331 80.8382 27.2041 80.4754 27.3486C80.0495 27.5251 79.9008 27.9225 79.9994 28.3419L79.983 28.3534Z" fill="#2C204D"/>
<path d="M1.21954 59.5405C4.68563 65.1439 8.83201 70.7123 13.8925 74.9926C14.4477 75.4646 15.3339 74.6524 14.8295 74.0943C12.6071 71.6435 10.3216 69.26 8.24605 66.6823C6.17051 64.1046 4.26182 61.3977 2.51222 58.5828C1.96174 57.6979 0.680103 58.6644 1.21954 59.5405Z" fill="#2C204D"/>
</svg>
