<svg width="85" height="80" viewBox="0 0 85 80" fill="none" xmlns="http://www.w3.org/2000/svg">
<circle cx="40" cy="40" r="40" fill="#5DC4F1"/>
<path d="M53.5518 25.5219C53.3188 25.3398 52.9823 25.3803 52.7995 25.6126C52.6168 25.8449 52.6572 26.1818 52.8898 26.3645C60.2477 32.1414 62.418 41.6657 59.3837 49.6873C52.5419 64.2996 31.2858 65.9715 22.3985 52.3322C21.2325 50.24 20.4226 47.9197 20.0603 45.448C17.63 28.2819 35.8678 16.4683 50.3061 24.6507C50.5635 24.7972 50.8907 24.7065 51.0361 24.4491C51.1823 24.1917 51.0916 23.8645 50.8342 23.7188C47.6335 21.9044 43.9857 20.9453 40.2852 20.9453C25.1308 20.9453 19.5245 35.4896 19.3755 36.5474C15.7458 46.4108 20.7329 58.342 31.6798 62.6335C35.7717 64.2376 40.0481 64.5018 44.0054 63.6432C54.2205 61.8448 61.7971 52.9698 61.7971 42.4576C61.7971 35.8093 58.7918 29.636 53.5518 25.5219Z" fill="#2C204D"/>
<path d="M22.6433 42.4583C22.6433 53.9614 33.5485 62.4345 44.7159 59.535C44.7292 59.5303 44.7436 59.5292 44.7564 59.5235C52.4493 57.5062 57.9262 50.4984 57.9262 42.4583C57.9262 32.7303 50.0122 24.8167 40.2846 24.8167C30.5096 24.8167 22.6433 32.7782 22.6433 42.4583ZM24.0156 45.5904C24.4894 45.5034 24.818 45.2932 25.2068 45.2017C27.0414 44.7772 28.2853 45.5402 29.6383 46.8033C33.2362 50.1641 35.3465 54.3317 35.5001 58.3207C29.6651 56.5574 25.1815 51.6578 24.0156 45.5904ZM45.1067 58.31C45.4384 52.0198 50.1417 46.921 56.4411 46.1233C55.1241 51.9306 50.7517 56.5895 45.1067 58.31ZM56.6558 45.021C49.5698 45.7348 44.2185 51.5259 44.0227 58.5973C41.5558 59.1685 39.0479 59.1713 36.5787 58.6048C36.518 54.235 34.27 49.664 30.3693 46.0206C29.7345 45.4277 29.0276 44.8264 28.1647 44.4449C27.0347 43.9369 25.6494 43.8519 24.2996 44.3814C24.17 44.4321 23.9819 44.5054 23.8495 44.5345C23.6364 42.8392 23.6648 41.1185 24.0243 39.2775C24.0311 39.2706 24.0391 39.2581 24.0457 39.2523C24.127 39.1826 24.3868 39.2077 24.5954 39.2272C25.5505 39.3214 26.3715 39.0565 27.2656 38.6971C34.3959 35.7751 42.3915 35.3838 49.7771 37.595C51.937 38.2428 54.1626 39.1293 56.5264 39.1728C56.9079 41.0619 56.9649 43.0395 56.6558 45.021ZM56.2689 38.0996C54.2059 38.0002 52.1337 37.1836 50.0851 36.5682C42.464 34.2865 34.2152 34.6911 26.8628 37.7038C25.234 38.3593 24.9405 38.1429 24.2891 38.14C26.194 31.0908 32.6415 25.8881 40.2846 25.8881C47.913 25.8881 54.3501 31.0711 56.2689 38.0996Z" fill="#2C204D"/>
<path d="M35.5202 41.2648C34.8467 43.1988 34.8175 45.6573 35.7647 47.5057C36.919 49.7545 39.4441 50.3481 41.9561 49.855C43.9378 49.4644 45.1909 47.9926 45.6806 45.4793C46.1524 43.0572 45.4274 40.7712 44.7581 40.0169C42.7689 37.7731 36.5852 38.1896 35.5202 41.2648ZM44.6287 45.2743C44.2248 47.3474 43.2828 48.5018 41.7493 48.8031C40.6245 49.025 37.8849 49.2914 36.7182 47.0167C35.9024 45.425 35.9539 43.2931 36.5323 41.6156C37.2647 39.5028 42.0608 39.0345 43.8095 40.5819L43.8098 40.5826C44.0609 40.805 44.1741 41.0224 44.3131 41.3903C44.7762 42.6138 44.8854 43.9566 44.6287 45.2743Z" fill="#2C204D"/>
<path d="M56.9342 25.0769L59.7502 24.507C60.04 24.4477 60.2273 24.1652 60.1684 23.875C60.1095 23.5848 59.828 23.4007 59.5368 23.4565L56.7222 24.0264C56.432 24.085 56.2444 24.3675 56.3029 24.6577C56.361 24.9438 56.6381 25.1349 56.9342 25.0769Z" fill="#2C204D"/>
<path d="M54.4036 22.4603C54.5626 22.4603 54.7199 22.3898 54.8256 22.2552L56.349 20.3125C56.5314 20.0795 56.4906 19.7433 56.258 19.5606C56.025 19.3764 55.6888 19.4183 55.5057 19.6513L53.9823 21.5939C53.7047 21.9484 53.9636 22.4603 54.4036 22.4603Z" fill="#2C204D"/>
<path d="M51.7942 20.9781C51.8009 20.9781 51.8078 20.9781 51.8148 20.9774C52.1102 20.9669 52.3411 20.7179 52.33 20.4222L52.2536 18.3916C52.225 17.6574 51.1567 17.74 51.1828 18.4321L51.2592 20.4626C51.27 20.7514 51.5076 20.9781 51.7942 20.9781Z" fill="#2C204D"/>
<path d="M70.5282 12.0204C73.8042 15.6293 76.4711 19.722 78.5104 24.1433C78.947 25.0932 80.3311 24.2414 79.9018 23.2984C77.823 18.7296 75.0052 14.5492 71.6137 10.8585C70.9209 10.1067 69.8423 11.2612 70.521 12.0135L70.5282 12.0204Z" fill="#2C204D"/>
<path d="M79.983 28.3534C80.0291 28.5409 80.0808 28.7367 80.1187 28.93C80.1376 29.0267 80.1376 29.0267 80.1301 28.9464C80.1392 28.9767 80.1458 29.0209 80.1548 29.0512C80.1762 29.1339 80.1893 29.2224 80.2107 29.3051C80.2831 29.6696 80.3416 30.0317 80.3918 30.3995C80.4924 31.1351 80.5732 31.86 80.6156 32.5998C80.6364 33.0126 81.0529 33.3801 81.4706 33.3315C81.9105 33.2795 82.2183 32.9172 82.1966 32.4682C82.129 30.8913 81.8762 29.3464 81.4687 27.8246C81.3652 27.4331 80.8382 27.2041 80.4754 27.3486C80.0495 27.5251 79.9008 27.9225 79.9994 28.3419L79.983 28.3534Z" fill="#2C204D"/>
<path d="M1.21954 59.5405C4.68563 65.1439 8.83201 70.7123 13.8925 74.9926C14.4477 75.4646 15.3339 74.6524 14.8295 74.0943C12.6071 71.6435 10.3216 69.26 8.24605 66.6823C6.17051 64.1046 4.26182 61.3977 2.51222 58.5828C1.96174 57.6979 0.680103 58.6644 1.21954 59.5405Z" fill="#2C204D"/>
</svg>
