<svg width="85" height="80" viewBox="0 0 85 80" fill="none" xmlns="http://www.w3.org/2000/svg">
<circle cx="40" cy="40" r="40" fill="#5DC4F1"/>
<path d="M48.1097 49.1496C48.2816 49.1496 48.4418 49.064 48.5371 48.9209C48.6325 48.7777 48.6499 48.5971 48.584 48.4386C47.3167 45.3959 45.8645 44.0413 43.4553 43.0695C43.254 42.9884 42.9649 43.0671 42.836 43.2602C41.9718 44.5538 40.9243 45.1912 39.5919 45.2126C38.0077 45.3618 36.8482 44.0869 36.2983 43.3097C36.1064 43.1473 36.0518 43.0648 35.7032 43.1351C34.5616 43.3651 31.3892 45.2086 29.4637 48.3684C29.3671 48.5269 29.3637 48.7256 29.4547 48.8874C29.7362 49.3883 29.1763 49.0473 48.1097 49.1496ZM35.7048 44.2289C36.407 45.1159 37.6325 46.2547 39.2899 46.2547C40.953 46.2547 42.2685 45.714 43.4269 44.1883C45.4473 45.0915 46.3519 46.1391 47.3151 48.1222H30.8597C32.0442 46.4827 33.7749 45.015 35.7048 44.2289Z" fill="#2C204D"/>
<path d="M35.255 38.842C36.1226 44.7353 42.7211 45.4199 43.6349 39.0563C44.97 38.8092 45.0962 37.0023 44.3438 36.3886C44.9357 34.0739 43.8208 31.9114 41.9371 31.219C40.7515 30.7829 39.2549 31.1006 38.3098 31.9541C36.7876 31.6029 35.1251 32.7551 34.9122 34.9226C34.8716 35.3366 34.8918 35.7399 34.9374 36.1211C34.7197 36.195 34.5202 36.3282 34.3814 36.5246C34.1992 36.7814 34.1192 37.1132 34.1564 37.459C34.2231 38.075 34.7507 38.6237 35.255 38.842ZM37.1272 41.0562C36.5661 40.2506 36.2623 39.1963 36.182 37.7722C37.7983 37.8061 40.0626 36.7863 41.2659 35.3868C41.5234 36.3231 41.9512 37.1958 42.7374 37.7617C42.6718 38.7023 42.5673 39.6819 42.1929 40.5593C41.7919 41.4997 41.0866 42.196 40.3067 42.4221C39.0883 42.7786 37.7854 42.0027 37.1272 41.0562ZM35.9349 35.0229C36.096 33.3776 37.3335 32.6303 38.2549 33.0116C38.4572 33.0972 38.692 33.0424 38.8382 32.8785C39.4649 32.1695 40.6956 31.8578 41.5822 32.1836C43.2342 32.79 43.9676 34.9082 43.1314 36.7545C42.4418 36.1066 42.179 35.0112 42.0093 33.8959C41.9246 33.3438 41.1591 33.3208 41.0083 33.8283C40.5551 35.3705 37.7121 36.849 36.0911 36.7495C35.9388 36.0691 35.8859 35.5205 35.9349 35.0229Z" fill="#2C204D"/>
<path d="M60.6619 40.3977H56.7942C56.5265 35.959 54.6067 31.6098 51.3001 28.6316C48.4962 26.1063 44.7722 24.6894 41.0109 24.5194L41.0117 20.554C41.0119 19.7439 40.3553 19.0871 39.5452 19.0869H39.5308C38.7207 19.0867 38.0639 19.7433 38.0637 20.5534L38.0628 24.6496C31.6861 25.5033 25.5427 30.6248 24.0743 37.9585L24.0617 37.9887C23.8379 38.776 23.6836 39.5829 23.5833 40.3977H19.338C18.6444 40.3977 18.0822 40.9601 18.0822 41.6537V41.666C18.0822 42.3595 18.6444 42.9219 19.338 42.9219H23.4669C23.7156 51.6683 30.057 57.8277 38.3073 58.5691L38.3067 61.6895C38.3065 62.3652 38.8541 62.913 39.5298 62.9132H39.5418C40.2175 62.9133 40.7653 62.3657 40.7655 61.6901L40.7661 58.6165C49.1161 58.1568 56.0735 51.231 56.7681 42.9219H60.6619C61.3555 42.9219 61.9178 42.3595 61.9178 41.666V41.6537C61.9178 40.9601 61.3555 40.3977 60.6619 40.3977ZM38.0625 26.1024L38.0621 28.1567C38.0619 28.9668 38.7185 29.6237 39.5286 29.6238H39.543C40.3531 29.624 41.0099 28.9674 41.0101 28.1573L41.0106 26.0712C41.0209 26.0722 41.0314 26.0717 41.0417 26.0727C48.0903 26.7768 54.0276 33.1047 54.6993 40.3977H52.6367C51.9431 40.3977 51.3808 40.9601 51.3808 41.6537V41.666C51.3808 42.3595 51.9431 42.9219 52.6367 42.9219H54.7189C54.1402 49.9675 48.1279 55.9434 40.7666 56.276L40.7672 53.6C40.7673 52.9243 40.2197 52.3764 39.544 52.3763H39.532C38.8563 52.3762 38.3085 52.9238 38.3084 53.5994L38.3078 56.1939C31.1389 55.3899 25.7003 50.4837 24.8672 42.9219H27.3632C28.0568 42.9219 28.6191 42.3595 28.6191 41.666V41.6537C28.6191 40.9601 28.0568 40.3977 27.3632 40.3977H24.7965C24.8177 39.9764 24.8498 39.5558 24.9064 39.1379C25.8321 32.3013 31.0602 26.8846 38.0625 26.1024Z" fill="#2C204D"/>
<path d="M47.8201 24.9757C48.0909 25.033 48.3685 24.8584 48.4265 24.5757L49.1974 20.8086C49.2542 20.531 49.075 20.2594 48.797 20.2026C48.5208 20.1444 48.2479 20.3243 48.1907 20.6026L47.4198 24.3697C47.363 24.648 47.5422 24.9188 47.8201 24.9757Z" fill="#2C204D"/>
<path d="M51.7773 26.6232C52.017 26.7742 52.3346 26.702 52.4856 26.462C53.2622 25.2252 54.1398 24.0366 55.0939 22.9276C55.2792 22.7123 55.2548 22.3885 55.0397 22.2032C54.8247 22.018 54.5006 22.0434 54.3153 22.2574C53.3277 23.4052 52.4194 24.636 51.6154 25.9148C51.4646 26.1556 51.5372 26.4727 51.7773 26.6232Z" fill="#2C204D"/>
<path d="M54.1404 30.1434C54.2583 30.4022 54.5638 30.5143 54.8209 30.3976L57.9918 28.9501C58.2499 28.8324 58.364 28.5274 58.2459 28.2692C58.1285 28.0117 57.8252 27.8986 57.5653 28.015L54.3942 29.4625C54.1363 29.5802 54.0223 29.8852 54.1404 30.1434Z" fill="#2C204D"/>
<path d="M70.5282 12.0204C73.8042 15.6293 76.4711 19.722 78.5104 24.1433C78.947 25.0932 80.3311 24.2414 79.9018 23.2984C77.823 18.7296 75.0052 14.5492 71.6137 10.8585C70.9209 10.1067 69.8423 11.2612 70.521 12.0135L70.5282 12.0204Z" fill="#2C204D"/>
<path d="M79.983 28.3534C80.0291 28.5409 80.0808 28.7367 80.1187 28.93C80.1376 29.0267 80.1376 29.0267 80.1301 28.9464C80.1392 28.9767 80.1458 29.0209 80.1548 29.0512C80.1762 29.1339 80.1893 29.2224 80.2107 29.3051C80.2831 29.6696 80.3416 30.0317 80.3918 30.3995C80.4924 31.1351 80.5732 31.86 80.6156 32.5998C80.6364 33.0126 81.0529 33.3801 81.4706 33.3315C81.9105 33.2795 82.2183 32.9172 82.1966 32.4682C82.129 30.8913 81.8762 29.3464 81.4687 27.8246C81.3652 27.4331 80.8382 27.2041 80.4754 27.3486C80.0495 27.5251 79.9008 27.9225 79.9994 28.3419L79.983 28.3534Z" fill="#2C204D"/>
<path d="M1.21954 59.5405C4.68563 65.1439 8.83201 70.7123 13.8925 74.9926C14.4477 75.4646 15.3339 74.6524 14.8295 74.0943C12.6071 71.6435 10.3216 69.26 8.24605 66.6823C6.17051 64.1046 4.26182 61.3977 2.51222 58.5828C1.96174 57.6979 0.680103 58.6644 1.21954 59.5405Z" fill="#2C204D"/>
</svg>
