<svg width="80" height="82" viewBox="0 0 80 82" fill="none" xmlns="http://www.w3.org/2000/svg">
<circle cx="40" cy="42" r="40" fill="#864113"/>
<circle cx="40" cy="40" r="40" fill="#F76F14"/>
<path d="M17.4422 65.7281C17.4422 66.3054 17.9137 66.7819 18.4943 66.7904C24.8473 66.8778 29.831 67.0384 35.8826 67.1482C38.7116 67.8759 48.0942 70.1549 48.8837 70.1549C48.9958 70.1549 49.1057 70.1358 49.2104 70.1012C49.5992 70.1194 49.9892 70.1137 50.3746 70.0591C50.698 70.0132 50.9582 69.7773 51.065 69.4686C51.3319 68.6975 51.6127 67.8874 51.8815 67.1109C55.9626 66.9921 55.7573 67.0073 56.0877 66.7851C56.3699 66.6655 56.5328 66.5379 56.8667 66.3352C57.4224 65.9979 57.784 65.4147 57.8174 64.7655C58.2454 56.4603 58.4274 48.2552 58.4439 39.997C59.6833 35.3294 60.896 30.6076 62.139 25.9665C62.3419 25.2091 61.9217 24.7119 61.8035 24.372C61.7882 23.9526 61.539 23.5694 61.142 23.4241C60.1336 23.0298 59.1817 22.6709 58.2481 22.3257C58.2393 21.9424 58.2333 21.5627 58.224 21.1788C58.2063 20.449 57.7183 20.1148 56.9638 19.2351C56.8097 18.9206 56.5198 18.6797 56.154 18.6334C56.1536 18.6334 56.1532 18.6334 56.1528 18.6334C51.6964 18.0813 47.3228 17.7274 42.9957 17.5429C42.9916 17.5419 42.9883 17.5391 42.9842 17.5382C36.9132 15.9604 30.8863 14.8059 24.5619 14.0086C24.0071 13.94 23.5039 14.2888 23.3917 14.8051L22.5697 18.052C21.1728 18.184 19.7764 18.3295 18.3797 18.5014C17.8451 18.5666 17.4422 19.0211 17.4422 19.5594V38.2455L12.0319 59.5577C11.8865 60.1376 12.2544 60.7016 12.7937 60.8367C14.3822 61.2675 15.9284 61.6891 17.4422 62.1045V65.7281ZM41.5564 67.2168C43.5758 67.2292 45.6779 67.244 49.2654 67.1756C49.0874 67.7249 48.9098 68.2763 48.7305 68.8175C46.3886 68.3333 44.0337 67.8076 41.5564 67.2168ZM60.4597 24.5533C59.5649 27.5003 59.0749 29.8236 58.4207 32.8298C58.3927 29.8104 58.3423 26.7735 58.2774 23.72C58.9829 23.9836 59.7063 24.2597 60.4597 24.5533ZM24.6008 15.3239C28.7222 15.8492 32.713 16.5441 36.6768 17.3947C32.4043 17.3899 28.168 17.574 23.9404 17.934L24.6008 15.3239ZM18.7423 19.7668C30.8868 18.2872 43.0058 18.3304 55.7769 19.8971C55.4554 26.7624 56.8832 43.236 55.2848 65.69C42.386 66.247 31.8692 65.6784 18.7423 65.4937V19.7668ZM13.3524 59.6415L17.4422 43.5302V60.756C16.1083 60.3909 14.7521 60.0211 13.3524 59.6415Z" fill="white"/>
<path d="M24.2927 36.2634C41.9911 36.4212 40.0412 36.3029 42.8864 36.4648C48.8526 36.8072 50.7197 36.4897 50.6565 30.5814L50.6531 26.2316C50.6531 24.6624 49.5558 23.3851 48.207 23.3851H24.3071C22.9583 23.3851 21.861 24.6624 21.861 26.2316V33.416C21.861 34.9768 22.9516 36.2541 24.2927 36.2634ZM23.1611 26.2316C23.1611 25.3937 23.6858 24.6852 24.3071 24.6852H48.207C48.8283 24.6852 49.353 25.3937 49.353 26.2316L49.3564 30.5949C49.4052 35.2538 48.7407 35.4975 42.9609 35.1673C40.0795 35.0017 41.9198 35.1208 24.3016 34.9633C23.6833 34.9591 23.1611 34.2506 23.1611 33.416V26.2316Z" fill="white"/>
<path d="M21.673 42.29H39.7055C40.0644 42.29 40.3556 41.9988 40.3556 41.6399C40.3556 41.281 40.0644 40.9899 39.7055 40.9899H21.673C21.3141 40.9899 21.0229 41.281 21.0229 41.6399C21.0229 41.9988 21.3141 42.29 21.673 42.29Z" fill="white"/>
<path d="M21.4445 49.829H45.2585C45.6173 49.829 45.9085 49.5379 45.9085 49.179C45.9085 48.8201 45.6173 48.5289 45.2585 48.5289H21.4445C21.0856 48.5289 20.7944 48.8201 20.7944 49.179C20.7944 49.5379 21.0856 49.829 21.4445 49.829Z" fill="white"/>
<path d="M37.1342 56.1856C37.1342 55.8267 36.843 55.5355 36.4842 55.5355H21.0641C20.7052 55.5355 20.4141 55.8267 20.4141 56.1856C20.4141 56.5445 20.7052 56.8356 21.0641 56.8356H36.4842C36.843 56.8356 37.1342 56.5445 37.1342 56.1856Z" fill="white"/>
<path d="M43.0667 56.0684V60.5173C43.0667 60.7857 43.284 60.9967 43.546 60.9967H51.0119C51.274 60.9967 51.4913 60.7857 51.4913 60.5173V56.1067C51.4913 55.8191 51.2292 55.6018 50.9544 55.6274L43.5524 55.589C43.2719 55.5762 43.0667 55.8081 43.0667 56.0684Z" fill="white"/>
<path d="M61.0899 21.193C61.7758 21.193 61.6991 20.5368 63.1137 17.9639C63.2868 17.649 63.1721 17.2538 62.8572 17.0811C62.5436 16.9067 62.1479 17.0227 61.9744 17.3376C61.0451 19.0265 61.1156 19.1028 60.5152 20.2399C60.2846 20.6777 60.6093 21.193 61.0899 21.193Z" fill="white"/>
<path d="M62.6736 22.5456C62.7988 22.7327 63.0049 22.8343 63.2144 22.8343C63.3389 22.8343 63.4641 22.7987 63.575 22.7251C64.9833 21.7835 65.4001 21.3636 66.5912 20.488C66.8807 20.2755 66.9429 19.8684 66.7305 19.5789C66.5176 19.2895 66.1109 19.2277 65.8218 19.4401C64.6238 20.3192 64.2233 20.7284 62.853 21.6434C62.5542 21.8431 62.4742 22.2469 62.6736 22.5456Z" fill="white"/>
<path d="M66.9801 25.7256C67.3052 25.7256 67.5857 25.4827 67.6247 25.1517C67.667 24.7954 67.4122 24.4721 67.0559 24.4297C65.9553 24.3003 64.989 24.3629 63.9665 24.241C63.6046 24.2037 63.2864 24.4534 63.2445 24.8106C63.2021 25.167 63.4569 25.4903 63.8133 25.5326C64.9138 25.6621 65.8801 25.5995 66.9027 25.7214C66.9289 25.7239 66.9547 25.7256 66.9801 25.7256Z" fill="white"/>
</svg>
