<svg width="80" height="80" viewBox="0 0 80 80" fill="none" xmlns="http://www.w3.org/2000/svg">
<circle cx="40" cy="40" r="40" fill="#5DC4F1"/>
<path d="M60.0838 50.6047C59.1416 50.2597 58.0056 49.9352 56.7077 49.6395C55.405 49.3413 54.057 49.8761 53.505 50.9078C53.3037 51.2856 53.1239 51.6692 52.9423 52.0528C51.0719 51.3431 49.126 49.9697 47.3402 49.1737C44.8431 48.0968 42.6975 48.5289 40.8608 46.693C39.6878 45.548 38.7752 44.0636 37.2909 43.0278C35.7137 41.8778 33.0605 41.3127 31.8267 42.7699C31.0242 43.6751 31.0193 44.9253 32.2506 46.4647C34.0331 48.6801 35.4624 51.0951 37.8938 53.2439C35.4073 53.0229 32.4469 52.1046 30.1067 51.3341H30.1042C27.9882 50.6441 26.0587 49.5844 24.3559 48.6513C23.2781 48.0599 22.2431 47.291 21.0439 46.4022C20.146 45.7369 19.323 45.1496 19.1472 45.0091C18.2099 44.2616 17.2522 43.6414 16.1958 44.2205C15.5354 44.5836 15.2002 45.1857 15.2922 46.003C14.9456 46.6347 14.9571 47.5013 15.0729 48.0853C15.2561 49.0127 15.7629 49.8103 16.3034 50.5619C22.9225 59.7857 35.6061 64.6962 49.8538 61.4294C49.7281 62.4981 49.5753 63.6013 49.443 64.6798C49.3855 65.1464 49.7757 65.5669 50.3441 65.6737C57.2417 66.9814 55.7294 66.7104 57.8684 65.7477C57.9259 65.7559 58.045 65.7723 58.1025 65.7723C58.8599 65.7723 58.9437 64.6576 58.1912 64.5459C56.0654 64.2338 53.9026 64.0136 51.7562 63.7138C51.5549 59.5607 52.5316 55.3443 54.5917 51.4885C54.8776 50.9546 55.6867 50.6679 56.4342 50.8412C57.6811 51.1254 58.7671 51.4351 59.6616 51.7612C60.6621 52.1284 63.119 52.5104 63.726 52.9071C62.346 56.7678 62.1908 59.4966 61.1385 62.1605C61.0809 62.3119 61.0853 62.48 61.1508 62.6282C61.2162 62.7764 61.3374 62.8929 61.4881 62.9524C61.6387 63.0119 61.8068 63.0097 61.9559 62.9462C62.1049 62.8827 62.2229 62.763 62.2844 62.6131C63.3046 60.0289 63.6332 56.7703 64.9393 53.1765C65.0378 52.9055 65.0156 52.618 64.8785 52.3666C64.2985 51.3045 61.4983 51.1213 60.0838 50.6047ZM50.7425 59.2847C50.7064 59.2921 50.6703 59.297 50.6358 59.311C39.9334 59.8104 31.1951 60.1086 22.6892 53.1782C19.9292 50.9636 18.4629 48.9363 17.9487 48.3671C17.5561 47.8783 16.3617 46.3907 16.5129 45.6317C16.5326 45.5324 16.5811 45.4149 16.7889 45.3015C17.2546 45.0387 17.9266 45.612 18.3808 45.9735C18.6765 46.2092 19.0051 46.422 20.3112 47.3921C21.5458 48.308 22.6128 49.099 23.7644 49.7307C28.2585 52.1974 29.2516 52.2993 29.7403 52.5104C32.5857 53.4468 37.6465 55.0609 40.5544 54.3438C40.7131 54.3046 40.8497 54.2039 40.9342 54.064C41.0187 53.924 41.0442 53.7562 41.0049 53.5975C40.9657 53.4388 40.8651 53.3022 40.7251 53.2177C40.5852 53.1332 40.4174 53.1078 40.2587 53.147C40.1264 53.1798 39.9819 53.202 39.8365 53.2234C36.9073 51.1148 35.2209 48.1897 33.2125 45.6934C31.8924 44.0439 32.6473 43.1551 33.9764 43.1305C37.1216 43.1305 38.6667 46.6216 40.5684 48.0927C42.562 49.66 44.6599 49.3627 46.8465 50.3016C48.5436 51.0606 50.4665 52.4143 52.4429 53.1798C51.6199 55.1346 51.0485 57.1859 50.7425 59.2847Z" fill="#2C204D"/>
<path d="M56.311 51.9855C55.4772 51.6997 54.5113 53.2234 55.4846 54.0892C56.3866 54.8909 58.2397 54.3044 57.9736 52.9565C57.8356 52.2566 57.1242 51.7983 56.311 51.9855ZM38.5074 14.0053C37.8256 14.0003 35.6488 13.9371 34.5095 14.4242C29.4577 15.4592 25.1806 19.485 24.0684 24.6017C23.0761 29.1655 24.4676 34.1672 28.2667 37.4126C33.4408 42.8143 41.131 42.8324 46.0374 39.421C55.768 32.6557 52.746 14.1046 38.5074 14.0053ZM25.2726 24.8629C26.4464 19.462 31.5064 15.3885 37.0428 15.3885C41.5992 15.3885 45.8271 17.9736 47.8117 21.9747C51.6642 29.7421 46.1803 39.4793 37.0428 39.4793C33.5862 39.4793 30.0525 37.8628 27.8206 35.2613C25.418 32.4602 24.4651 28.5733 25.2718 24.862L25.2726 24.8629Z" fill="#2C204D"/>
<path d="M34.6146 23.5781C34.9785 23.7711 35.9149 24.0611 36.2016 24.3092C36.3741 27.6828 36.2337 31.0588 36.2608 34.3987C35.9634 34.7191 35.6603 35.0493 35.3588 35.3762C35.1798 35.5701 35.3145 35.8633 35.5864 35.8904C36.4661 35.9783 37.4494 35.9332 38.3217 35.8124C38.6593 35.7664 39.2278 35.7278 39.3616 35.4838C39.5391 35.1602 39.0331 34.8464 38.868 34.6821C38.8507 34.6657 38.3365 34.278 38.3373 34.255C38.5065 30.5232 38.6741 27.1915 38.6043 23.5083C38.5985 23.2052 38.3004 22.9784 37.98 23.0047C36.8432 23.0474 35.68 23.0943 34.5506 23.2183C34.3288 23.2429 34.4167 23.4729 34.6146 23.5781ZM36.0332 21.8399C36.6665 22.2178 37.5562 22.1685 38.1361 21.7217C38.7168 21.2748 38.9427 20.4665 38.6717 19.8102C38.0572 18.3234 35.6792 18.4581 35.2586 20.0024C35.073 20.6842 35.4007 21.4621 36.0332 21.8399Z" fill="#2C204D"/>
</svg>
