<svg width="85" height="80" viewBox="0 0 85 80" fill="none" xmlns="http://www.w3.org/2000/svg">
<circle cx="40" cy="40" r="40" fill="#5DC4F1"/>
<path d="M58.4793 20.5276L58.1 24.7234C58.0698 25.0601 58.3337 25.3545 58.6777 25.3545C58.974 25.3545 59.2266 25.1283 59.2538 24.8274L59.6331 20.6316C59.6618 20.3134 59.4272 20.0314 59.1082 20.0027C58.787 19.9718 58.508 20.2086 58.4793 20.5276Z" fill="#2C204D"/>
<path d="M61.6224 25.9487C61.7951 25.9487 61.9663 25.8718 62.0801 25.7255L64.8763 22.1307C65.0731 21.8781 65.0271 21.5139 64.7753 21.3178C64.5204 21.121 64.1584 21.1677 63.9624 21.4189L61.1662 25.0136C60.8684 25.3958 61.1462 25.9487 61.6224 25.9487Z" fill="#2C204D"/>
<path d="M66.9826 27.8409C66.9041 27.5302 66.5897 27.3417 66.2797 27.4201L62.286 28.4223C61.9761 28.5 61.7876 28.8152 61.8653 29.1251C61.944 29.4376 62.2614 29.6238 62.5681 29.5459L66.5618 28.5437C66.8717 28.466 67.0602 28.1508 66.9826 27.8409Z" fill="#2C204D"/>
<path d="M18.7037 60.5982L60.7387 60.2137C61.2372 60.209 61.8108 60.1683 62.1077 59.7678C62.4634 59.2878 62.1634 58.553 61.6533 58.2419C61.1658 57.9443 60.5668 57.9269 59.993 57.9287C60.1341 56.7153 59.3536 35.686 59.2613 27.0182C59.2575 26.7007 59.0004 26.4458 58.6829 26.4451C56.4007 26.4407 21.214 26.3735 18.8153 26.3689C18.5458 26.3689 18.2971 26.545 18.2529 26.8727C17.656 27.722 17.1386 29.0754 17.1948 30.0039C17.7815 39.7019 17.6252 49.0259 17.0035 58.7932C16.941 59.7747 17.7202 60.6071 18.7037 60.5982ZM57.568 27.6016C51.4988 32.9208 45.8634 39.3952 39.9745 44.4936C32.7981 39.5469 26.0491 33.2282 20.2802 27.5304L57.568 27.6016ZM19.5272 29.6975C24.0832 35.094 29.2406 39.9332 34.8612 44.0853C36.0949 44.9966 37.8181 46.0145 39.323 46.1399C40.6042 46.2467 45.5794 41.3555 47.6908 38.7873C51.0428 35.4367 54.512 31.844 58.127 28.6548C58.2729 38.6923 58.7224 47.4734 58.8413 57.2997C45.6807 57.6337 32.7076 57.4153 19.5113 57.7477C19.7738 49.0244 19.9335 39.609 19.5085 29.5222L19.5272 29.6975Z" fill="#2C204D"/>
<path d="M70.5282 12.0204C73.8042 15.6293 76.4711 19.722 78.5104 24.1433C78.947 25.0932 80.3311 24.2414 79.9018 23.2984C77.823 18.7296 75.0052 14.5492 71.6137 10.8585C70.9209 10.1067 69.8423 11.2612 70.521 12.0135L70.5282 12.0204Z" fill="#2C204D"/>
<path d="M79.983 28.3534C80.0291 28.5409 80.0808 28.7367 80.1187 28.93C80.1376 29.0267 80.1376 29.0267 80.1301 28.9464C80.1392 28.9767 80.1458 29.0209 80.1548 29.0512C80.1762 29.1339 80.1893 29.2224 80.2107 29.3051C80.2831 29.6696 80.3416 30.0317 80.3918 30.3995C80.4924 31.1351 80.5732 31.86 80.6156 32.5998C80.6364 33.0126 81.0529 33.3801 81.4706 33.3315C81.9105 33.2795 82.2183 32.9172 82.1966 32.4682C82.129 30.8913 81.8762 29.3464 81.4687 27.8246C81.3652 27.4331 80.8382 27.2041 80.4754 27.3486C80.0495 27.5251 79.9008 27.9225 79.9994 28.3419L79.983 28.3534Z" fill="#2C204D"/>
<path d="M1.21954 59.5405C4.68563 65.1439 8.83201 70.7123 13.8925 74.9926C14.4477 75.4646 15.3339 74.6524 14.8295 74.0943C12.6071 71.6435 10.3216 69.26 8.24605 66.6823C6.17051 64.1046 4.26182 61.3977 2.51222 58.5828C1.96174 57.6979 0.680103 58.6644 1.21954 59.5405Z" fill="#2C204D"/>
</svg>
