<svg width="80" height="80" viewBox="0 0 80 80" fill="none" xmlns="http://www.w3.org/2000/svg">
<circle cx="40" cy="40" r="40" fill="#5DC4F1"/>
<path d="M37.5545 37.4038C37.4653 35.3065 37.2819 33.2701 37.3029 31.1671C37.3182 29.6219 36.6863 29.5171 35.2899 29.4554C33.2144 29.3637 31.1275 29.321 29.052 29.3865C29.0486 29.3866 29.0459 29.3876 29.0425 29.3877C28.2795 27.3411 27.3964 25.347 26.4701 23.3701C26.1249 22.6336 25.2965 19.6484 24.0587 20.1995C23.4621 20.4652 23.0922 21.554 22.8147 22.0921C22.4802 22.7407 22.2191 23.4177 21.9522 24.0953C21.4118 25.0657 20.8665 26.0342 20.3714 27.0184C19.8155 28.1238 19.2915 29.249 18.8111 30.3897C18.5801 30.9383 18.1429 31.7159 18.3198 32.3429C18.6866 33.6436 20.9332 33.6094 21.9578 33.6579C22.5839 33.6875 23.2104 33.7004 23.8371 33.7094C23.7086 35.413 23.9518 37.1743 23.8947 38.8799C23.8521 40.1536 24.5248 40.254 25.6913 40.3128C27.5915 40.4085 29.5109 40.407 31.4147 40.4228C33.0491 40.4364 35.0746 40.6371 36.6566 40.1886C37.9333 39.8268 37.6005 38.4827 37.5545 37.4038ZM21.1215 32.821C20.2034 32.7292 19.09 32.6628 19.2278 31.4673C19.3123 30.7333 19.9114 29.8002 20.2166 29.1064C21.3078 26.6251 22.7021 24.2532 23.7868 21.7689C23.9492 21.3969 24.4371 21.177 24.7068 21.4677C25.0268 21.8127 25.1052 22.4841 25.2962 22.9094C25.6492 23.696 26.0411 24.4645 26.404 25.2464C27.1028 26.7515 27.6999 28.3116 28.2936 29.861C28.5738 30.5922 29.1722 31.7871 28.6116 32.4628C28.1274 33.0464 27.1431 32.9784 26.4666 32.9542C24.6872 32.8902 22.8952 32.9983 21.1215 32.821ZM36.7429 38.7226C36.5274 39.7329 35.3717 39.4672 34.5122 39.5109C31.7888 39.6497 29.0471 39.579 26.3205 39.5316C25.8063 39.5226 24.8938 39.7449 24.6522 39.118C24.5643 38.8899 24.5855 38.6357 24.617 38.3932C24.706 37.7054 24.7212 36.9685 24.6717 36.2755C24.6565 36.063 24.477 33.718 24.4858 33.718C24.7773 33.7216 25.0688 33.7253 25.3603 33.7303C26.4091 33.7482 27.7244 33.9173 28.7335 33.5525C30.1499 33.0403 29.745 31.3785 29.3458 30.2112C30.7665 30.1788 32.1749 30.2295 33.5971 30.2519C34.2213 30.2617 35.1984 30.1175 35.7857 30.3314C36.1764 30.4738 36.3749 30.6098 36.451 31.167C36.4969 31.5034 36.4064 32.045 36.3969 32.3859C36.3542 33.92 36.617 35.3876 36.6939 36.9096C36.7205 37.4377 36.8506 38.2178 36.7429 38.7226ZM37.129 21.7468C35.8417 21.6566 34.5463 21.6025 33.2559 21.5962C32.1954 21.5909 30.2476 21.2234 29.2919 21.7704C29.1259 21.8654 29.1403 22.1711 29.349 22.2069C30.7648 22.4497 32.2439 22.3244 33.6736 22.3569C34.8076 22.3827 36.11 22.649 37.2093 22.3399C37.5484 22.2446 37.4616 21.7701 37.129 21.7468Z" fill="#2C204D"/>
<path d="M37.1289 23.4052C35.8416 23.3152 34.5462 23.261 33.2558 23.2547C32.1954 23.2494 30.2476 22.8818 29.2919 23.4288C29.1259 23.5238 29.1403 23.8297 29.349 23.8655C30.7647 24.1083 32.2439 23.9829 33.6735 24.0154C34.8076 24.0412 36.11 24.3075 37.2092 23.9985C37.5484 23.9031 37.4615 23.4285 37.1289 23.4052ZM37.1289 25.0639C35.8416 24.9738 34.5462 24.9196 33.2558 24.9133C32.1954 24.9081 30.2476 24.5404 29.2919 25.0875C29.1259 25.1825 29.1403 25.4884 29.349 25.5241C30.7647 25.767 32.2439 25.6415 33.6735 25.674C34.8076 25.6998 36.11 25.9661 37.2092 25.6571C37.5484 25.5617 37.4615 25.0871 37.1289 25.0639ZM37.1289 26.6866C35.8416 26.5964 34.5462 26.5423 33.2558 26.5359C32.1954 26.5307 30.2476 26.163 29.2919 26.7102C29.1259 26.8051 29.1403 27.1109 29.349 27.1467C30.7647 27.3896 32.2439 27.2641 33.6735 27.2967C34.8076 27.3224 36.11 27.5887 37.2092 27.2797C37.5484 27.1843 37.4615 26.7098 37.1289 26.6866ZM58.0788 22.9099C55.5001 22.8325 52.9049 22.7859 50.3196 22.7805C48.1953 22.776 44.2932 22.4603 42.3787 22.9302C42.0461 23.0117 42.0749 23.2744 42.493 23.3051C45.3292 23.5136 48.2925 23.406 51.1565 23.4339C53.4284 23.4561 56.0377 23.6848 58.2397 23.4193C58.9191 23.3374 58.7451 22.9299 58.0788 22.9099ZM58.0788 24.3343C55.5001 24.2569 52.9049 24.2104 50.3196 24.205C48.1953 24.2005 44.2932 23.8848 42.3787 24.3546C42.0461 24.4363 42.0749 24.6988 42.493 24.7295C45.3292 24.9381 48.2925 24.8304 51.1565 24.8584C53.4284 24.8805 56.0377 25.1092 58.2397 24.8437C58.9191 24.7619 58.7451 24.3543 58.0788 24.3343ZM58.0788 25.7588C55.5001 25.6815 52.9049 25.6349 50.3196 25.6295C48.1953 25.625 44.2932 25.3093 42.3787 25.7792C42.0461 25.8607 42.0749 26.1234 42.493 26.1541C45.3292 26.3626 48.2925 26.2549 51.1565 26.2829C53.4284 26.3051 56.0377 26.5337 58.2397 26.2683C58.9191 26.1864 58.7451 25.7789 58.0788 25.7588ZM36.3611 43.1053C33.7823 43.0279 31.1872 42.9815 28.6019 42.976C26.4776 42.9715 22.5755 42.6557 20.661 43.1255C20.3284 43.2072 20.3573 43.4698 20.7753 43.5005C23.6115 43.7091 26.5748 43.6014 29.4388 43.6293C31.7107 43.6514 34.32 43.8801 36.5221 43.6147C37.2014 43.5329 37.0274 43.1253 36.3611 43.1053ZM36.3611 44.5297C33.7823 44.4524 31.1872 44.4059 28.6019 44.4004C26.4776 44.3959 22.5755 44.0801 20.661 44.55C20.3284 44.6316 20.3573 44.8943 20.7753 44.925C23.6115 45.1335 26.5748 45.0258 29.4388 45.0537C31.7107 45.0759 34.32 45.3045 36.5221 45.0392C37.2014 44.9573 37.0274 44.5498 36.3611 44.5297ZM36.3611 45.9542C33.7823 45.8768 31.1872 45.8303 28.6019 45.8248C26.4776 45.8204 22.5755 45.5046 20.661 45.9744C20.3284 46.0561 20.3573 46.3187 20.7753 46.3494C23.6115 46.558 26.5748 46.4502 29.4388 46.4781C31.7107 46.5003 34.32 46.729 36.5221 46.4636C37.2014 46.3817 37.0274 45.9742 36.3611 45.9542ZM57.1033 37.7361C56.8685 37.6006 56.6263 37.4785 56.3776 37.3705C56.6137 34.6454 55.5368 31.5078 53.1621 30.1277C50.9007 28.8136 48.5564 29.0181 46.6859 30.3267C46.1313 30.6258 45.6212 31.0196 45.1422 31.5652C44.0143 32.8504 43.4573 34.5844 43.593 36.2793C43.6215 36.6346 43.6739 36.9747 43.7418 37.3042C43.3428 37.4746 42.9626 37.686 42.6075 37.9352C42.053 38.2342 41.5428 38.628 41.0638 39.1736C39.9359 40.4588 39.3789 42.1929 39.5146 43.8877C39.7772 47.1633 41.7475 49.3669 44.9 50.1355C46.7164 50.5783 48.7775 50.1078 50.2544 48.9514C51.0084 49.4871 51.9011 49.8873 52.9197 50.1355C55.839 50.8472 59.3919 49.2005 60.1329 46.1362C60.8417 43.2044 59.8237 39.3171 57.1033 37.7361ZM45.3815 32.523C45.9225 31.6851 46.6384 31.1077 47.4264 30.6153C47.8324 30.4098 48.2536 30.2396 48.6919 30.1299C50.3856 29.7058 52.3347 30.3781 53.6037 31.5179C55.007 32.7785 55.7364 35.0246 55.5634 37.0768C53.8062 36.5748 52.0747 36.9223 50.6271 37.9351C50.3907 38.0627 50.1642 38.2078 49.9493 38.369C49.6822 38.1321 49.3954 37.9174 49.0836 37.7361C47.5379 36.8378 45.9538 36.65 44.5083 37.0384C44.221 35.4914 44.4893 33.9048 45.3815 32.523ZM49.3227 40.1314C49.4834 39.8825 49.661 39.659 49.8498 39.4515C50.4278 40.0822 50.868 40.8896 51.1494 41.7707C50.3071 41.8883 49.4423 41.8301 48.626 41.6067C48.7917 41.0862 49.026 40.59 49.3227 40.1314ZM47.8485 41.3388C46.6005 40.8097 45.5408 39.864 44.9708 38.5463C44.8555 38.2789 44.7566 38.0048 44.6746 37.7254C46.2577 37.3547 48.0517 37.9271 49.3027 38.9376C49.2275 39.0143 49.1544 39.0929 49.0835 39.1734C48.5284 39.8059 48.1124 40.5472 47.8485 41.3388ZM50.4564 38.8745C50.7442 38.6365 51.0496 38.4225 51.3677 38.2237C51.7737 38.0182 52.1948 37.848 52.6332 37.7383C53.5443 37.5101 54.5287 37.6014 55.442 37.9099C55.1874 39.0904 54.599 40.1438 53.627 40.8186C53.1067 41.1799 52.5335 41.4409 51.9362 41.608C51.626 40.5926 51.1345 39.6429 50.4564 38.8745ZM49.5487 48.4269C46.7073 50.3994 42.3022 49.4142 40.8924 46.1548C40.033 44.1679 40.1168 41.9685 41.3031 40.1315C41.8441 39.2935 42.56 38.7162 43.348 38.2237C43.5308 38.1313 43.7176 38.0469 43.9077 37.9706C44.4891 39.8852 45.7897 41.2899 47.649 42.0834C47.527 42.6752 47.4858 43.2838 47.5342 43.8876C47.6851 45.7701 48.4026 47.2963 49.5819 48.4017C49.5706 48.4098 49.5602 48.4188 49.5487 48.4269ZM50.1575 47.9015C49.6385 47.4236 49.2084 46.84 48.912 46.1547C48.3827 44.9309 48.2127 43.6266 48.4363 42.3758C48.6154 42.4319 48.7962 42.4822 48.9784 42.5269C49.7511 42.7154 50.568 42.737 51.3657 42.6124C51.7417 44.5207 51.401 46.599 50.1575 47.9015ZM57.5683 48.4269C55.5673 49.816 52.792 49.7365 50.8323 48.4305C51.441 47.8014 51.8973 47.0295 52.1132 46.1361C52.3914 44.9858 52.3996 43.689 52.1474 42.4415C54.051 41.9021 55.7115 40.5131 56.1915 38.5278C56.2137 38.4359 56.2292 38.3408 56.248 38.2472C56.7241 38.4876 57.1653 38.7855 57.5449 39.1264C59.9794 41.3132 60.3917 46.4669 57.5683 48.4269Z" fill="#2C204D"/>
<path d="M64.7718 32.2785C64.6782 28.9564 64.8692 25.6393 64.6543 22.3203C64.5091 20.0777 64.8266 17.468 62.1722 16.7744C59.302 16.0243 56.2998 16.3734 53.3811 16.3829C51.8264 16.388 50.2307 16.5942 48.6824 16.5085C48.0317 16.4724 47.3842 16.3559 46.7335 16.3214C46.4145 16.3046 45.7023 16.4413 45.2333 16.3997C45.2335 16.393 45.2343 16.3855 45.2346 16.3788C45.3186 13.2081 39.5444 13.3887 38.6516 15.8473C38.5414 16.1504 38.4657 16.5254 38.4426 16.914C35.7946 16.7745 33.1227 16.8949 30.47 16.8848C27.5731 16.8738 24.6488 16.7051 21.7572 16.8388C20.0638 16.9169 16.877 16.5839 15.6746 18.124C15.1589 18.7844 15.0863 19.674 15.0458 20.4808C14.9703 21.9822 15.008 23.4888 15.0204 24.9909C15.0684 30.8089 15.3241 36.6189 15.4459 42.4348C15.4753 43.8398 15.5004 45.246 15.5394 46.6506C15.5767 47.9935 15.4226 49.4678 15.6976 50.7883C16.1206 52.8195 18.229 53.0487 20.0019 53.1973C22.9131 53.4415 25.8325 53.5272 28.7534 53.5716C26.267 55.5396 24.0068 57.9173 21.6738 60.021C20.259 61.2967 16.0427 64.4088 19.5287 65.9244C20.6461 66.4103 21.6938 65.4914 22.518 64.803C23.8049 63.7283 24.8655 62.3557 26.0538 61.1717C27.2796 59.9503 28.3805 58.6076 29.4693 57.2654C30.4727 56.0287 31.6343 54.9629 32.657 53.7487C32.693 53.7059 32.7181 53.6619 32.7383 53.6177C34.3317 53.6346 35.9245 53.6551 37.5158 53.6984C39.8962 53.7632 42.2764 53.8664 44.656 53.9825C45.2441 55.5304 46.414 56.6919 47.5184 57.9243C48.7294 59.2758 49.9317 60.6681 51.3752 61.7751C53.3938 63.323 55.9984 66.9861 58.8519 64.827C59.7125 64.1758 59.8792 63.2625 58.9596 62.6098C58.3733 62.1937 57.7019 61.9112 57.1148 61.4867C56.3151 60.9084 55.6044 60.2414 54.8408 59.6208C53.6673 58.6668 52.4658 57.7386 51.3848 56.6807C50.6271 55.9391 49.8699 54.9715 49.0151 54.2047C50.7122 54.2933 52.409 54.3817 54.1052 54.4611C56.7202 54.5835 59.3325 54.799 61.9245 54.2856C64.1484 53.8451 64.3659 51.6118 64.595 49.6614C65.2696 43.9156 64.9342 38.0443 64.7718 32.2785ZM39.6418 16.4694C39.8561 15.4982 40.5833 15.4021 41.4291 15.3728C41.9878 15.3535 42.7415 15.1673 43.2778 15.3405C43.3302 15.3578 43.3859 15.3631 43.4406 15.3561C43.7504 15.5118 43.9798 15.74 44.0563 16.084C44.1479 16.496 43.97 17.048 43.8386 17.4389C43.5385 18.3314 42.7905 18.2001 42.0117 18.231C41.4947 18.2515 40.9461 18.3127 40.4354 18.1767C39.6066 17.956 39.4578 17.3037 39.6418 16.4694ZM26.9651 58.5643C26.0904 59.5633 25.1681 60.49 24.241 61.4397C23.2507 62.4542 22.4133 63.601 21.238 64.4214C20.6824 64.8092 19.5522 65.2009 19.3202 64.3016C19.1715 63.7255 20.2446 62.9085 20.6267 62.5439C21.6985 61.5211 22.8006 60.5319 23.9068 59.5465C25.0563 58.5227 26.1477 57.4514 27.2711 56.4012C28.2761 55.4616 29.3288 54.6039 30.2562 53.5907C30.6422 53.5952 31.0283 53.5995 31.4143 53.6034C29.7808 55.1241 28.4389 56.8812 26.9651 58.5643ZM49.9903 56.7412C50.7898 57.599 51.6317 58.386 52.5238 59.1485C53.511 59.9922 54.5347 60.8073 55.549 61.6188C55.9839 61.9667 56.4357 62.3102 56.8988 62.6189C57.2527 62.8548 57.621 63.0506 57.9903 63.2611C58.2595 63.4146 58.4361 63.3806 58.3233 63.6994C58.018 64.561 56.3678 64.3151 55.8 63.9868C55.2317 63.6581 54.7785 63.151 54.2855 62.7246C53.2511 61.8296 52.113 61.0372 51.1018 60.1221C49.9849 59.1114 48.9885 57.9327 47.9547 56.8374C47.1004 55.9321 46.3137 54.9346 45.4671 54.022C46.056 54.0515 46.645 54.0815 47.2339 54.112C48.122 55.0229 49.1183 55.8055 49.9903 56.7412ZM63.6517 43.2538C63.5533 45.8697 63.6254 48.5812 63.0769 51.1536C62.944 51.7771 62.8212 52.3188 62.2954 52.7144C61.7445 53.1289 61.0432 53.1416 60.3739 53.2103C59.157 53.3353 57.952 53.3757 56.7296 53.3189C54.2723 53.2049 51.818 52.9603 49.36 52.8969C46.8785 52.833 44.3938 52.7809 41.9166 52.6164C36.8564 52.2805 31.7917 52.49 26.7312 52.266C24.211 52.1545 21.5367 52.2372 19.0472 51.8235C17.7791 51.6127 16.9251 51.2878 16.8541 49.8374C16.7868 48.4625 16.7891 47.07 16.7681 45.6929C16.6897 40.5505 16.428 35.4151 16.3214 30.2739C16.2615 27.3803 16.1925 24.4769 16.2581 21.583C16.2891 20.2139 16.1601 18.8263 17.7514 18.4184C19.0307 18.0903 20.4442 18.1474 21.7571 18.0867C24.6492 17.9531 27.5722 18.1068 30.4699 18.1017C33.1584 18.0969 35.8312 18.0372 38.5145 17.9023C38.5948 18.2575 38.7389 18.5814 38.9683 18.8217C39.5309 19.4115 40.7139 19.4726 41.4673 19.4655C42.4348 19.4564 43.7122 19.6403 44.4358 18.85C44.7436 18.5136 44.9472 18.0296 45.0733 17.5295C45.4822 17.553 45.9103 17.4918 46.3097 17.5006C47.4597 17.5258 48.5861 17.7457 49.7404 17.6865C52.2513 17.5574 54.8112 17.4296 57.3254 17.4981C58.6089 17.5329 59.9071 17.6079 61.17 17.8474C61.6798 17.9441 62.3921 18.033 62.7763 18.4178C63.2379 18.8799 63.2042 19.6621 63.2406 20.26C63.3973 22.8315 63.4839 25.3677 63.4744 27.944C63.4555 33.0415 63.8433 38.1619 63.6517 43.2538Z" fill="#2C204D"/>
</svg>
