<svg width="80" height="80" viewBox="0 0 80 80" fill="none" xmlns="http://www.w3.org/2000/svg">
<circle cx="40" cy="40" r="40" fill="#5DC4F1"/>
<path d="M29.6924 16.4286C24.4562 17.7808 19.7779 21.6648 17.2715 26.4609C14.4002 31.9548 14.2407 38.8147 16.8518 44.4387C21.6716 54.821 34.4148 59.3185 45.2569 53.4508C47.7372 57.5197 50.8359 61.3669 53.892 64.7429C55.4005 66.41 58.1269 67.525 60.3013 66.653C62.1565 66.2439 63.4793 64.6349 63.4793 62.7101C63.4793 61.7366 63.1324 60.7959 62.5042 60.0613C58.9678 55.9391 55.5578 51.7101 52.2789 47.3803C53.8266 45.2845 54.9546 42.904 55.4986 40.3477C60.5401 25.0793 45.0197 10.4464 29.6924 16.4286ZM61.5725 60.8605C63.2208 62.7845 61.6968 65.7417 59.1838 65.5175C58.7783 65.4825 58.3853 65.3596 58.0321 65.1573C57.679 64.955 57.3741 64.6782 57.1388 64.3461C54.1328 60.0967 51.0002 55.9381 47.7454 51.8761C49.1321 50.8648 50.392 49.6901 51.4977 48.3774C54.7313 52.6375 58.091 56.8004 61.5725 60.8605ZM54.9775 37.366C53.7546 44.9049 47.3953 51.2643 39.8572 52.4872C32.0286 53.7601 23.5007 49.3705 20.2196 41.8365C15.9512 31.4435 21.1874 19.3424 32.9088 16.7198C45.0917 13.9934 57.0586 24.5336 54.9775 37.366Z" fill="#2C204D"/>
<path d="M58.2791 62.0622C58.3783 62.1279 58.4947 62.1629 58.6137 62.1628C59.2223 62.1628 59.4595 61.3685 58.9499 61.0356C58.4927 60.735 58.1427 60.2971 57.9502 59.7848C57.8935 59.6323 57.7785 59.5086 57.6306 59.4409C57.4826 59.3731 57.3138 59.367 57.1613 59.4237C57.0087 59.4804 56.885 59.5954 56.8173 59.7434C56.7495 59.8913 56.7434 60.0602 56.8001 60.2127C57.085 60.9701 57.6029 61.6177 58.2791 62.0622ZM39.7189 20.3241C39.6421 20.296 39.5604 20.2835 39.4787 20.2874C39.397 20.2913 39.3169 20.3115 39.2431 20.3468C39.1694 20.3821 39.1034 20.4318 39.0491 20.4929C38.9948 20.5541 38.9533 20.6255 38.927 20.703C38.9007 20.7805 38.8901 20.8624 38.896 20.944C38.9018 21.0256 38.9239 21.1052 38.961 21.1781C38.998 21.251 39.0493 21.3158 39.1117 21.3686C39.1742 21.4215 39.2466 21.4613 39.3246 21.4857C44.7146 23.314 48.7695 28.7694 48.9659 34.4579C48.9716 34.6169 49.0387 34.7674 49.1531 34.8779C49.2676 34.9883 49.4204 35.0501 49.5794 35.0502H49.6007C49.7633 35.0442 49.9169 34.9741 50.0279 34.8551C50.1389 34.7361 50.1982 34.578 50.1929 34.4154C49.9745 28.1371 45.6684 22.3413 39.7189 20.3241ZM49.1417 36.3779L49.0428 36.4768C48.9839 36.533 48.9368 36.6004 48.9043 36.675C48.8717 36.7496 48.8543 36.8299 48.8531 36.9113C48.8518 36.9927 48.8668 37.0735 48.8971 37.149C48.9275 37.2245 48.9725 37.2933 49.0296 37.3512C49.0868 37.4092 49.1549 37.4552 49.23 37.4866C49.3051 37.518 49.3857 37.5341 49.4671 37.534C49.5484 37.5339 49.629 37.5177 49.704 37.4862C49.7791 37.4547 49.8471 37.4085 49.9041 37.3505L50.062 37.1926L49.6285 36.7591L49.1417 36.3779ZM55.9011 14.0335C55.8249 14.0072 55.7442 13.9962 55.6638 14.0012C55.5833 14.0061 55.5046 14.0269 55.4322 14.0623C55.3598 14.0977 55.295 14.147 55.2417 14.2075C55.1884 14.268 55.1476 14.3384 55.1215 14.4147L53.2515 19.8734C53.2098 20.0244 53.2273 20.1856 53.3005 20.3241C53.3736 20.4626 53.4968 20.5681 53.6449 20.6189C53.7931 20.6697 53.9551 20.6621 54.0978 20.5976C54.2406 20.5331 54.3533 20.4165 54.4131 20.2717L56.2823 14.8131C56.3349 14.6591 56.3243 14.4906 56.2529 14.3444C56.1814 14.1983 56.0549 14.0865 55.9011 14.0335ZM56.3747 23.0179C56.4631 23.0181 56.5505 22.9991 56.6308 22.9622C58.3715 22.1618 60.0343 21.2017 61.5978 20.0942C61.7307 20.0002 61.8208 19.8572 61.8482 19.6967C61.8757 19.5363 61.8383 19.3715 61.7443 19.2386C61.6502 19.1057 61.5072 19.0156 61.3467 18.9882C61.1863 18.9607 61.0215 18.9981 60.8886 19.0921C59.3871 20.156 57.79 21.0781 56.1179 21.8464C55.5232 22.1205 55.717 23.0179 56.3747 23.0179ZM64.5583 27.0188C62.2613 26.3541 59.8618 26.1168 57.4791 26.3186C57.3988 26.3252 57.3205 26.3476 57.2489 26.3845C57.1773 26.4214 57.1136 26.4721 57.0616 26.5336C57.0097 26.5952 56.9703 26.6664 56.9459 26.7432C56.9216 26.82 56.9126 26.9009 56.9195 26.9812C56.9473 27.319 57.2467 27.5783 57.5821 27.5407C61.4031 27.2184 64.1419 28.2213 64.3881 28.2213C64.5356 28.2209 64.6781 28.1674 64.7894 28.0705C64.9006 27.9736 64.9733 27.8398 64.9939 27.6938C65.0146 27.5477 64.982 27.399 64.9019 27.2751C64.8219 27.1511 64.6999 27.0601 64.5583 27.0188Z" fill="#2C204D"/>
</svg>
