<svg width="85" height="80" viewBox="0 0 85 80" fill="none" xmlns="http://www.w3.org/2000/svg">
<circle cx="40" cy="40" r="40" fill="#5DC4F1"/>
<path d="M58.5148 55.2066C58.5384 53.1379 56.495 50.3226 55.2316 48.5927C53.4448 46.1447 50.9158 45.803 49.1803 46.9018C47.591 47.9071 46.8312 49.4589 46.2466 50.9853C46.1568 51.2189 45.8818 51.333 45.6416 51.204C37.1387 46.6244 33.8079 37.1101 35.0413 35.5494C35.9282 34.4272 38.249 34.7943 39.3334 33.8615C40.02 33.2711 40.424 32.4004 40.5155 31.5012C40.597 31.1785 40.6333 30.8098 40.6232 30.3914C40.6476 30.426 40.6671 30.4638 40.692 30.4981L40.6227 30.3716C40.5839 28.9753 40.0841 27.5278 39.4621 26.2769C38.2979 23.9318 37.2624 21.7744 34.9144 20.5968C33.2158 19.7489 30.7721 21.7742 29.2778 22.9426C28.2764 23.7071 27.0226 24.9519 26.4213 26.6615C24.6954 30.23 25.4608 34.1608 26.6074 37.9653C29.7499 48.3912 38.3632 60.603 49.322 61.1034C53.5539 62.0466 58.4767 58.5581 58.5148 55.2066ZM34.4542 21.5159C36.5413 22.5622 37.4834 24.6015 38.5424 26.7344C38.9856 27.6261 39.2829 28.4474 39.4511 29.2468C39.9728 31.7253 39.1185 32.3062 37.5429 33.0286C35.5358 29.1262 33.2406 25.4445 31.1674 22.7894C31.955 22.2135 33.5932 21.0811 34.4542 21.5159ZM51.0257 60.2292C50.1277 60.2894 49.1786 60.0887 48.2107 59.6513C40.5491 56.1945 34.2198 49.784 30.846 42.0618C29.551 39.098 28.6638 35.9141 27.8056 32.8353C27.3357 31.1484 26.8029 29.2361 27.2427 27.4682C27.6685 25.7545 28.9233 24.5057 29.9012 23.7599C30.4992 23.2944 30.302 23.4481 30.3496 23.4108C32.3653 25.9902 34.6004 29.5712 36.5673 33.3799C35.8824 33.5647 35.1827 33.642 34.5542 33.6841C33.694 33.7418 33.0763 34.5257 33.2162 35.3777C34.3606 42.3487 38.9351 48.7593 45.1543 52.1084C45.9375 52.5313 46.8954 52.1646 47.2057 51.3532C47.513 50.5505 47.8749 49.746 48.3902 49.0452C52.0883 53.0102 54.6325 58.2226 55.0154 58.8503C53.7909 59.6682 52.4191 60.1466 51.0257 60.2292ZM49.0801 48.2767C49.2793 48.0946 49.4903 47.9213 49.7294 47.77C51.0077 46.9598 52.9453 47.203 54.4019 49.1987C55.453 50.6381 57.5074 53.4458 57.4874 55.1946C57.4753 56.2728 56.6954 57.4169 55.8303 58.2139C53.5657 53.9531 51.3547 50.7 49.0801 48.2767Z" fill="#453B62"/>
<path d="M21.0192 24.8797C20.9426 25.1532 21.1018 25.4368 21.3747 25.5131C22.2533 25.7599 23.0677 26.2214 23.7295 26.8475C23.8285 26.9411 23.9556 26.988 24.0823 26.988C24.5455 26.988 24.7719 26.4187 24.4352 26.101C23.6533 25.3613 22.6911 24.8161 21.653 24.5245C21.3811 24.4476 21.0961 24.6068 21.0192 24.8797Z" fill="#453B62"/>
<path d="M25.7705 24.0521C25.994 23.8775 26.0338 23.5551 25.8588 23.331L23.7181 20.5913C23.5432 20.3679 23.2204 20.3278 22.997 20.503C22.7736 20.6776 22.7338 21.0007 22.9088 21.2241L25.0495 23.9638C25.2226 24.1861 25.5462 24.2277 25.7705 24.0521Z" fill="#453B62"/>
<path d="M27.3689 21.6047C27.4237 21.8789 27.6898 22.0631 27.9736 22.0074C28.2518 21.9519 28.4321 21.681 28.3762 21.4027C28.1622 20.3352 27.8234 19.2918 27.3696 18.2998C27.2515 18.0416 26.9475 17.9286 26.6883 18.047C26.4305 18.1647 26.3171 18.4697 26.4352 18.7279C26.8565 19.6476 27.1706 20.6155 27.3689 21.6047Z" fill="#453B62"/>
<path d="M70.5282 12.0204C73.8042 15.6293 76.4711 19.722 78.5104 24.1433C78.947 25.0932 80.3311 24.2414 79.9018 23.2984C77.823 18.7296 75.0052 14.5492 71.6137 10.8585C70.9209 10.1067 69.8423 11.2612 70.521 12.0135L70.5282 12.0204Z" fill="#2C204D"/>
<path d="M79.983 28.3534C80.0291 28.5409 80.0808 28.7367 80.1187 28.93C80.1376 29.0267 80.1376 29.0267 80.1301 28.9464C80.1392 28.9767 80.1458 29.0209 80.1548 29.0512C80.1762 29.1339 80.1893 29.2224 80.2107 29.3051C80.2831 29.6696 80.3416 30.0317 80.3918 30.3995C80.4924 31.1351 80.5732 31.86 80.6156 32.5998C80.6364 33.0126 81.0529 33.3801 81.4706 33.3315C81.9105 33.2795 82.2183 32.9172 82.1966 32.4682C82.129 30.8913 81.8762 29.3464 81.4687 27.8246C81.3652 27.4331 80.8382 27.2041 80.4754 27.3486C80.0495 27.5251 79.9008 27.9225 79.9994 28.3419L79.983 28.3534Z" fill="#2C204D"/>
<path d="M1.21954 59.5405C4.68563 65.1439 8.83201 70.7123 13.8925 74.9926C14.4477 75.4646 15.3339 74.6524 14.8295 74.0943C12.6071 71.6435 10.3216 69.26 8.24605 66.6823C6.17051 64.1046 4.26182 61.3977 2.51222 58.5828C1.96174 57.6979 0.680103 58.6644 1.21954 59.5405Z" fill="#2C204D"/>
</svg>
