<svg width="85" height="80" viewBox="0 0 85 80" fill="none" xmlns="http://www.w3.org/2000/svg">
<circle cx="40" cy="40" r="40" fill="#5DC4F1"/>
<path d="M47.6324 22.2367C47.451 21.0848 47.5513 21.4909 47.1738 20.9937C47.2032 20.9559 47.1445 21.0323 47.1738 20.9937C46.9221 20.5838 46.7894 20.7413 43.133 20.1167C41.0138 16.1531 41.1991 15.9477 40.7806 15.6482C40.2711 15.2822 39.7731 15.1765 39.1493 15.0167C39.1802 15.0676 39.1184 14.9657 39.1493 15.0167C39.0232 14.9855 38.8902 14.9983 38.7724 15.0531C38.6546 15.1079 38.5591 15.2012 38.5016 15.3177L36.2187 19.8804L31.1665 20.5845C31.0593 20.5993 30.9584 20.6439 30.8753 20.7131C30.7921 20.7823 30.73 20.8735 30.696 20.9762C30.662 21.0789 30.6575 21.1891 30.6829 21.2943C30.7084 21.3994 30.7628 21.4954 30.84 21.5712L34.4724 25.1519L33.583 30.1755C33.5641 30.2819 33.5753 30.3915 33.6154 30.4919C33.6556 30.5922 33.723 30.6794 33.8101 30.7434C33.8972 30.8074 34.0004 30.8458 34.1082 30.8542C34.216 30.8626 34.3239 30.8406 34.4199 30.7908L38.9478 28.4423C43.0936 30.6271 43.5422 30.9761 43.8348 30.9027C43.8495 30.8989 43.8634 30.8935 43.878 30.8873L43.8981 30.8719L43.8749 30.8765C44.6022 30.4179 45.2878 29.9022 45.1758 29.0946L44.7018 25.6815C45.517 24.8346 46.3717 23.9722 47.2464 23.2411C47.5429 22.9933 47.6926 22.6181 47.6324 22.2375V22.2367ZM42.4366 24.5798C42.369 24.645 42.3182 24.7256 42.2886 24.8148C42.259 24.9039 42.2515 24.999 42.2668 25.0917L42.9601 29.2676C39.1563 27.268 39.0922 27.065 38.6846 27.2742L34.9279 29.2228L35.6659 25.0554C35.6824 24.9628 35.6762 24.8676 35.6476 24.7781C35.6191 24.6885 35.5692 24.6072 35.5023 24.5412L32.4882 21.5704L36.6804 20.9852C36.7733 20.9723 36.8618 20.9369 36.938 20.8821C37.0143 20.8274 37.0761 20.7549 37.1181 20.671L39.0119 16.885L40.8648 20.6911C40.9059 20.7754 40.9668 20.8485 41.0424 20.904C41.118 20.9595 41.2059 20.9959 41.2987 21.0099L45.4846 21.643L42.4366 24.5798ZM64.1276 42.2076C64.3592 42.0146 64.4758 41.7212 64.4287 41.424C64.2898 40.5392 64.35 40.3887 64.2434 40.4041C64.204 40.3183 64.1439 40.2436 64.0687 40.1867C63.9934 40.1297 63.9051 40.0922 63.8119 40.0776L60.7932 39.6221C59.2221 36.6629 59.3627 36.5285 59.0461 36.3023C58.674 36.0352 57.9807 35.4979 57.7522 35.6546C57.6382 35.6469 57.5245 35.6724 57.4247 35.728C57.325 35.7837 57.2435 35.867 57.1902 35.968L55.4392 39.4677L51.5636 40.0096C51.4565 40.0244 51.3557 40.0689 51.2726 40.138C51.1894 40.2071 51.1273 40.2981 51.0933 40.4007C51.0592 40.5033 51.0545 40.6134 51.0798 40.7185C51.1051 40.8237 51.1593 40.9196 51.2363 40.9955L54.0233 43.7439L53.3416 47.5964C53.3225 47.7029 53.3336 47.8126 53.3736 47.9131C53.4137 48.0135 53.4811 48.1008 53.5682 48.1649C53.6554 48.2291 53.7587 48.2675 53.8666 48.2759C53.9744 48.2843 54.0825 48.2623 54.1785 48.2124L57.6518 46.4105C61.3537 48.3545 61.2418 48.4433 61.6317 48.2526L61.6378 48.2935C62.2207 47.9283 62.6384 47.4705 62.5488 46.8305L62.1759 44.1469C62.1736 44.1284 62.1682 44.1083 62.1651 44.0883C62.7943 43.4351 63.4529 42.7719 64.1276 42.2076ZM57.6565 45.1768C57.404 45.1768 57.5121 45.2038 54.6872 46.6437L55.2184 43.6459C55.2348 43.5535 55.2284 43.4584 55.1999 43.369C55.1714 43.2795 55.1216 43.1984 55.0547 43.1325L52.8853 40.994L55.9009 40.5732C55.994 40.5603 56.0826 40.525 56.159 40.4703C56.2354 40.4155 56.2973 40.343 56.3394 40.259L57.7012 37.536L59.0345 40.2737C59.0756 40.358 59.1366 40.431 59.2122 40.4866C59.2877 40.5421 59.3757 40.5785 59.4684 40.5925L62.4793 41.048L60.2868 43.161C60.2193 43.2263 60.1687 43.307 60.1392 43.3962C60.1098 43.4853 60.1024 43.5803 60.1177 43.6729L60.6164 46.6769C57.8248 45.2162 57.9143 45.1768 57.6565 45.1768ZM21.144 31.8917L19.3923 35.3913L15.5167 35.9325C15.4095 35.9473 15.3086 35.9919 15.2254 36.0611C15.1423 36.1303 15.0802 36.2214 15.0462 36.3242C15.0122 36.4269 15.0076 36.5371 15.0331 36.6422C15.0585 36.7474 15.1129 36.8434 15.1901 36.9192L17.9771 39.6661L17.2939 43.52C17.2751 43.6264 17.2865 43.7359 17.3267 43.8362C17.3669 43.9364 17.4344 44.0234 17.5214 44.0873C17.6085 44.1513 17.7117 44.1896 17.8194 44.1979C17.927 44.2063 18.0349 44.1843 18.1308 44.1346L21.6049 42.3327C25.2512 44.2481 25.0713 44.2411 25.3323 44.2411C25.4533 44.2411 25.5712 44.2033 25.6697 44.133L25.6774 44.1253C25.7391 44.1284 25.7808 44.1562 25.902 44.0427C26.1846 43.7779 26.5189 43.0815 26.4656 42.6986L26.0951 40.0351C26.7312 39.3742 27.3982 38.7018 28.0815 38.1305C28.3131 37.9375 28.4289 37.6441 28.3826 37.3477C28.3548 37.1716 28.317 36.6266 28.2822 36.405C28.2668 36.3093 28.2305 36.3232 28.1965 36.3263C28.1568 36.241 28.0968 36.1668 28.0217 36.1103C27.9465 36.0537 27.8586 36.0165 27.7657 36.002L24.7973 35.5527C23.1914 32.5325 23.3543 32.4344 23.0363 32.2059C22.6067 31.9077 22.1283 31.6869 21.6227 31.5536L21.635 31.576C21.5325 31.5801 21.4329 31.6116 21.3466 31.6671C21.2603 31.7226 21.1904 31.8002 21.144 31.8917ZM24.2399 39.084C24.1722 39.1491 24.1214 39.2298 24.0918 39.3189C24.0622 39.4081 24.0547 39.5031 24.07 39.5958L24.5687 42.599C21.8504 41.1769 21.7408 40.96 21.3417 41.1646L18.6395 42.5666L19.1707 39.568C19.1871 39.4756 19.1807 39.3806 19.1522 39.2911C19.1237 39.2017 19.0739 39.1205 19.007 39.0546L16.8392 36.9176L19.854 36.4969C19.9469 36.4839 20.0353 36.4485 20.1116 36.3938C20.1879 36.3391 20.2497 36.2666 20.2917 36.1827L21.6543 33.4589L22.9861 36.1966C23.0272 36.281 23.0883 36.3541 23.164 36.4096C23.2398 36.4652 23.3279 36.5015 23.4207 36.5154L26.4324 36.9709L24.2399 39.084Z" fill="#2C204D"/>
<path d="M15.5413 46.8105C15.395 46.8228 15.2588 46.8903 15.1604 46.9992C15.0619 47.1082 15.0085 47.2505 15.011 47.3973C15.3005 64.3611 14.733 64.4167 15.1769 64.8699C15.4688 65.1656 63.232 65.0722 63.3139 65.0475V65.1007L64.4804 64.6653C64.6175 64.6142 64.7358 64.5225 64.8195 64.4026C64.9032 64.2826 64.9484 64.1399 64.949 63.9936L65 54.0066C65.0006 53.8869 64.9713 53.769 64.9148 53.6634C64.8583 53.5579 64.7764 53.4681 64.6765 53.4021L63.3695 52.5375V52.5606C63.3054 52.5328 63.2369 52.5169 63.1672 52.5135C57.3075 52.3089 52.7201 52.2827 48.9109 52.4363V36.6128L47.4672 35.1698V35.1953C47.3936 35.1482 47.3101 35.1189 47.2232 35.1096C40.5011 34.5152 35.442 34.5159 31.2977 35.1135C31.1588 35.1337 31.0319 35.2037 30.9407 35.3105C30.8495 35.4173 30.8003 35.5536 30.8021 35.6941C30.853 39.467 30.8739 43.175 30.877 46.7843C24.446 46.4608 19.5528 46.467 15.5413 46.8105ZM62.5812 53.653C62.6638 57.0809 62.6638 60.5311 62.5828 63.9218H48.9093V53.5998C52.5842 53.4485 56.9832 53.4639 62.5812 53.653ZM46.604 36.2175C46.8009 46.1157 46.4635 55.3453 46.5847 63.8848H31.9648C32.0443 59.1059 32.0759 44.6326 31.9663 36.1897C35.8188 35.6902 40.5003 35.7002 46.604 36.2175ZM29.3329 47.8713V63.8856H16.1798C16.2655 58.706 16.2647 53.3411 16.1798 47.9215C19.7165 47.6513 23.9596 47.6358 29.3345 47.8713H29.3329Z" fill="#2C204D"/>
<path d="M36.4728 52.8122C36.55 52.8122 42.1518 52.7049 42.0739 52.701C42.8104 52.6856 42.8575 51.5816 42.0507 51.543L40.0403 51.5831V42.88C40.04 42.7692 40.008 42.6609 39.9481 42.5677C39.8881 42.4746 39.8027 42.4006 39.702 42.3544C39.6013 42.3083 39.4895 42.292 39.3798 42.3074C39.2701 42.3228 39.1671 42.3694 39.083 42.4415L36.2605 44.8765C36.1502 44.9785 36.0839 45.1194 36.0755 45.2694C36.067 45.4193 36.1171 45.5667 36.2152 45.6805C36.3132 45.7943 36.4516 45.8656 36.6012 45.8793C36.7508 45.8931 36.8999 45.8483 37.0171 45.7543L38.8823 44.1446V51.6055L36.462 51.6542C36.3136 51.6631 36.1742 51.7287 36.0728 51.8374C35.9714 51.9461 35.9156 52.0896 35.917 52.2383C35.9184 52.387 35.9769 52.5295 36.0803 52.6363C36.1837 52.7431 36.3242 52.806 36.4728 52.8122Z" fill="#2C204D"/>
<path d="M70.5282 12.0204C73.8042 15.6293 76.4711 19.722 78.5104 24.1433C78.947 25.0932 80.3311 24.2414 79.9018 23.2984C77.823 18.7296 75.0052 14.5492 71.6137 10.8585C70.9209 10.1067 69.8423 11.2612 70.521 12.0135L70.5282 12.0204Z" fill="#2C204D"/>
<path d="M79.983 28.3534C80.0291 28.5409 80.0808 28.7367 80.1187 28.93C80.1376 29.0267 80.1376 29.0267 80.1301 28.9464C80.1392 28.9767 80.1458 29.0209 80.1548 29.0512C80.1762 29.1339 80.1893 29.2224 80.2107 29.3051C80.2831 29.6696 80.3416 30.0317 80.3918 30.3995C80.4924 31.1351 80.5732 31.86 80.6156 32.5998C80.6364 33.0126 81.0529 33.3801 81.4706 33.3315C81.9105 33.2795 82.2183 32.9172 82.1966 32.4682C82.129 30.8913 81.8762 29.3464 81.4687 27.8246C81.3652 27.4331 80.8382 27.2041 80.4754 27.3486C80.0495 27.5251 79.9008 27.9225 79.9994 28.3419L79.983 28.3534Z" fill="#2C204D"/>
<path d="M1.21954 59.5405C4.68563 65.1439 8.83201 70.7123 13.8925 74.9926C14.4477 75.4646 15.3339 74.6524 14.8295 74.0943C12.6071 71.6435 10.3216 69.26 8.24605 66.6823C6.17051 64.1046 4.26182 61.3977 2.51222 58.5828C1.96174 57.6979 0.680103 58.6644 1.21954 59.5405Z" fill="#2C204D"/>
</svg>
